<svg width="409" height="395" viewBox="0 0 409 395" fill="none" xmlns="http://www.w3.org/2000/svg">
<g clip-path="url(#clip0_87_10405)">
<g clip-path="url(#clip1_87_10405)">
<g clip-path="url(#clip2_87_10405)">
<g clip-path="url(#clip3_87_10405)">
<mask id="mask0_87_10405" style="mask-type:luminance" maskUnits="userSpaceOnUse" x="-1" y="-1" width="410" height="396">
<path d="M386.91 -0.019043H21.4903C9.61875 -0.019043 -0.00500488 9.60471 -0.00500488 21.4762V372.924C-0.00500488 384.795 9.61875 394.419 21.4903 394.419H386.91C398.781 394.419 408.405 384.795 408.405 372.924V21.4762C408.405 9.60471 398.781 -0.019043 386.91 -0.019043Z" fill="white"/>
</mask>
<g mask="url(#mask0_87_10405)">
<mask id="mask1_87_10405" style="mask-type:luminance" maskUnits="userSpaceOnUse" x="-1" y="-1" width="410" height="327">
<path d="M-0.00500488 -0.019043H408.405V325.634H-0.00500488V-0.019043Z" fill="white"/>
</mask>
<g mask="url(#mask1_87_10405)">
<path d="M4.79915 -105.346H-20.4255V-79.1033M4.79915 -105.346V-79.1033H30.0249M4.79915 -105.346H30.0249M-20.4255 -79.1033H4.80023V-52.8619V-26.6194V-0.376938V25.8645V52.107V78.3495V104.591V130.833V157.076V183.317V209.56H30.0249M-20.4255 -79.1033V-52.8619M30.0249 -105.346V-79.1033M30.0249 -105.346H55.2496M30.0249 -79.1033H55.2496V-105.346M30.0249 -79.1033V-52.8619M-20.4255 -52.8619H4.79915H30.0249M-20.4255 -52.8619V-26.6194M55.2496 -105.346H80.4754M30.0249 -52.8619H55.2496H80.4754M30.0249 -52.8619V-26.6194M80.4754 -105.346V-79.1033M80.4754 -105.346H105.7M80.4754 -79.1033H55.2507V-52.8619V-26.6194V-0.376938V25.8645V52.107V78.3495V104.591V130.833V157.076V183.317V209.56M80.4754 -79.1033H105.7M80.4754 -79.1033V-52.8619M105.7 -105.346V-79.1033M105.7 -105.346H130.927M105.7 -79.1033H130.927M105.7 -79.1033L105.701 -52.8619M80.4754 -52.8619H105.701M80.4754 -52.8619V-26.6194M130.927 -105.346V-79.1033M130.927 -105.346H156.152M130.927 -79.1033H156.152M130.927 -79.1033V-52.8619M105.701 -52.8619H130.927M105.701 -52.8619V-26.6194M156.152 -105.346V-79.1033M156.152 -105.346H181.377M156.152 -79.1033H181.377M156.152 -79.1033V-52.8619M130.927 -52.8619H156.152M130.927 -52.8619V-26.6194M181.377 -105.346V-79.1033M181.377 -105.346H206.602M181.377 -79.1033H206.602M181.377 -79.1033V-52.8619M156.152 -52.8619H181.377M156.152 -52.8619V-26.6194M206.602 -105.346V-79.1033M206.602 -105.346H231.828M206.602 -79.1033H231.828M206.602 -79.1033V-52.8619M181.377 -52.8619H206.602M181.377 -52.8619V-26.6194M231.828 -105.346V-79.1033M231.828 -105.346H257.053M231.828 -79.1033H257.053M231.828 -79.1033V-52.8619M206.602 -52.8619H231.828M206.602 -52.8619V-26.6194M257.053 -105.346V-79.1033M257.053 -105.346H282.278M257.053 -79.1033H282.278M257.053 -79.1033V-52.8619M231.828 -52.8619H257.053M231.828 -52.8619V-26.6194M282.278 -105.346V-79.1033M282.278 -105.346H307.504M282.278 -79.1033H307.504M282.278 -79.1033V-52.8619M257.053 -52.8619H282.278M257.053 -52.8619V-26.6194M307.504 -105.346V-79.1033M307.504 -105.346H332.729M307.504 -79.1033H332.729M307.504 -79.1033V-52.8619M282.278 -52.8619H307.504M282.278 -52.8619V-26.6194M332.729 -105.346V-79.1033M332.729 -105.346H357.955M332.729 -79.1033H357.955M332.729 -79.1033V-52.8619M307.504 -52.8619H332.729M307.504 -52.8619V-26.6194M357.955 -105.346V-79.1033M357.955 -105.346H383.179M357.955 -79.1033H383.179M357.955 -79.1033V-52.8619M332.729 -52.8619H357.955M332.729 -52.8619V-26.6194M383.179 -105.346V-79.1033M383.179 -105.346H408.405V-79.1033M383.179 -79.1033H408.405M383.179 -79.1033V-52.8619M357.955 -52.8619H383.179M357.955 -52.8619V-26.6194M408.405 -79.1033V-52.8619M383.179 -52.8619H408.405M383.179 -52.8619V-26.6194M408.405 -52.8619V-26.6194M-20.4255 -26.6194H4.79915H30.0249M-20.4255 -26.6194V-0.376938M30.0249 -26.6194H55.2496H80.4754M30.0249 -26.6194V-0.376938M80.4754 -26.6194H105.701M80.4754 -26.6194V-0.376938M105.701 -26.6194H130.927M105.701 -26.6194V-0.376938M130.927 -26.6194H156.152M130.927 -26.6194V-0.376938M156.152 -26.6194H181.377M156.152 -26.6194V-0.376938M181.377 -26.6194H206.602M181.377 -26.6194V-0.376938M206.602 -26.6194H231.828M206.602 -26.6194V-0.376938M231.828 -26.6194H257.053M231.828 -26.6194V-0.376938M257.053 -26.6194H282.278M257.053 -26.6194V-0.376938M282.278 -26.6194H307.504M282.278 -26.6194V-0.376938M307.504 -26.6194H332.729M307.504 -26.6194V-0.376938M332.729 -26.6194H357.955M332.729 -26.6194V-0.376938M357.955 -26.6194H383.179M357.955 -26.6194V-0.376938M383.179 -26.6194H408.405M383.179 -26.6194V-0.376938M408.405 -26.6194V-0.376938M-20.4255 -0.376938H4.79915H30.0249M-20.4255 -0.376938V25.8645M30.0249 -0.376938H55.2496H80.4754M30.0249 -0.376938V25.8645M80.4754 -0.376938H105.701M80.4754 -0.376938V25.8645M105.701 -0.376938H130.927M105.701 -0.376938V25.8645M130.927 -0.376938H156.152M130.927 -0.376938V25.8645M156.152 -0.376938H181.377M156.152 -0.376938V25.8645M181.377 -0.376938H206.602M181.377 -0.376938V25.8645M206.602 -0.376938H231.828M206.602 -0.376938V25.8645M231.828 -0.376938H257.053M231.828 -0.376938V25.8645M257.053 -0.376938H282.278M257.053 -0.376938V25.8645M282.278 -0.376938H307.504M282.278 -0.376938V25.8645M307.504 -0.376938H332.729M307.504 -0.376938V25.8645M332.729 -0.376938H357.955M332.729 -0.376938V25.8645M357.955 -0.376938H383.179M357.955 -0.376938V25.8645M383.179 -0.376938H408.405M383.179 -0.376938V25.8645M408.405 -0.376938V25.8645M-20.4255 25.8645H4.79915H30.0249M-20.4255 25.8645V52.107M30.0249 25.8645H55.2496H80.4754M30.0249 25.8645V52.107M80.4754 25.8645H105.701M80.4754 25.8645V52.107M105.701 25.8645H130.927M105.701 25.8645V52.107M130.927 25.8645H156.152M130.927 25.8645V52.107M156.152 25.8645H181.377M156.152 25.8645V52.107M181.377 25.8645H206.602M181.377 25.8645V52.107M206.602 25.8645H231.828M206.602 25.8645V52.107M231.828 25.8645H257.053M231.828 25.8645V52.107M257.053 25.8645H282.278M257.053 25.8645V52.107M282.278 25.8645H307.504M282.278 25.8645V52.107M307.504 25.8645H332.729M307.504 25.8645V52.107M332.729 25.8645H357.955M332.729 25.8645V52.107M357.955 25.8645H383.179M357.955 25.8645V52.107M383.179 25.8645H408.405M383.179 25.8645V52.107M408.405 25.8645V52.107M-20.4255 52.107H4.79915H30.0249M-20.4255 52.107V78.3495M30.0249 52.107H55.2496H80.4754M30.0249 52.107V78.3495M80.4754 52.107H105.701M80.4754 52.107V78.3495M105.701 52.107H130.927M105.701 52.107V78.3495M130.927 52.107H156.152M130.927 52.107V78.3495M156.152 52.107H181.377M156.152 52.107V78.3495M181.377 52.107H206.602M181.377 52.107V78.3495M206.602 52.107H231.828M206.602 52.107V78.3495M231.828 52.107H257.053M231.828 52.107V78.3495M257.053 52.107H282.278M257.053 52.107V78.3495M282.278 52.107H307.504M282.278 52.107V78.3495M307.504 52.107H332.729M307.504 52.107V78.3495M332.729 52.107H357.955M332.729 52.107V78.3495M357.955 52.107H383.179M357.955 52.107V78.3495M383.179 52.107H408.405M383.179 52.107V78.3495M408.405 52.107V78.3495M-20.4255 78.3495H4.79915H30.0249M-20.4255 78.3495V104.591M30.0249 78.3495H55.2496H80.4754M30.0249 78.3495V104.591M80.4754 78.3495H105.701M80.4754 78.3495V104.591M105.701 78.3495H130.927M105.701 78.3495V104.591M130.927 78.3495H156.152M130.927 78.3495V104.591M156.152 78.3495H181.377M156.152 78.3495V104.591M181.377 78.3495H206.602M181.377 78.3495V104.591M206.602 78.3495H231.828M206.602 78.3495V104.591M231.828 78.3495H257.053M231.828 78.3495V104.591M257.053 78.3495H282.278M257.053 78.3495V104.591M282.278 78.3495H307.504M282.278 78.3495V104.591M307.504 78.3495H332.729M307.504 78.3495V104.591M332.729 78.3495H357.955M332.729 78.3495V104.591M357.955 78.3495H383.179M357.955 78.3495V104.591M383.179 78.3495H408.405M383.179 78.3495V104.591M408.405 78.3495V104.591M-20.4255 104.591H4.79915H30.0249M-20.4255 104.591V130.833M30.0249 104.591H55.2496H80.4754M30.0249 104.591V130.833M80.4754 104.591H105.701M80.4754 104.591V130.833M105.701 104.591H130.927M105.701 104.591V130.833M130.927 104.591H156.152M130.927 104.591V130.833M156.152 104.591H181.377M156.152 104.591V130.833M181.377 104.591H206.602M181.377 104.591V130.833M206.602 104.591H231.828M206.602 104.591V130.833M231.828 104.591H257.053M231.828 104.591V130.833M257.053 104.591H282.278M257.053 104.591V130.833M282.278 104.591H307.504M282.278 104.591V130.833M307.504 104.591H332.729M307.504 104.591V130.833M332.729 104.591H357.955M332.729 104.591V130.833M357.955 104.591H383.179M357.955 104.591V130.833M383.179 104.591H408.405M383.179 104.591V130.833M408.405 104.591V130.833M-20.4255 130.833H4.79915H30.0249M-20.4255 130.833V157.076M30.0249 130.833H55.2496H80.4754M30.0249 130.833V157.076M80.4754 130.833H105.701M80.4754 130.833V157.076M105.701 130.833H130.927M105.701 130.833V157.076M130.927 130.833H156.152M130.927 130.833V157.076M156.152 130.833H181.377M156.152 130.833V157.076M181.377 130.833H206.602M181.377 130.833V157.076M206.602 130.833H231.828M206.602 130.833V157.076M231.828 130.833H257.053M231.828 130.833V157.076M257.053 130.833H282.278M257.053 130.833V157.076M282.278 130.833H307.504M282.278 130.833V157.076M307.504 130.833H332.729M307.504 130.833V157.076M332.729 130.833H357.955M332.729 130.833V157.076M357.955 130.833H383.179M357.955 130.833V157.076M383.179 130.833H408.405M383.179 130.833V157.076M408.405 130.833V157.076M-20.4255 157.076H4.79915H30.0249M-20.4255 157.076V183.317M30.0249 157.076H55.2496H80.4754M30.0249 157.076V183.317M80.4754 157.076H105.701M80.4754 157.076V183.317M105.701 157.076H130.927M105.701 157.076V183.317M130.927 157.076H156.152M130.927 157.076V183.317M156.152 157.076H181.377M156.152 157.076V183.317M181.377 157.076H206.602M181.377 157.076V183.317M206.602 157.076H231.828M206.602 157.076V183.317M231.828 157.076H257.053M231.828 157.076V183.317M257.053 157.076H282.278M257.053 157.076V183.317M282.278 157.076H307.504M282.278 157.076V183.317M307.504 157.076H332.729M307.504 157.076V183.317M332.729 157.076H357.955M332.729 157.076V183.317M357.955 157.076H383.179M357.955 157.076V183.317M383.179 157.076H408.405M383.179 157.076V183.317M408.405 157.076V183.317M-20.4255 183.317H4.79915H30.0249M-20.4255 183.317V209.56H4.79915M30.0249 183.317H55.2496H80.4754M30.0249 183.317V209.56M80.4754 183.317H105.701M80.4754 183.317V209.56M105.701 183.317H130.927M105.701 183.317V209.56M130.927 183.317H156.152M130.927 183.317V209.56M156.152 183.317H181.377M156.152 183.317V209.56M181.377 183.317H206.602M181.377 183.317V209.56M206.602 183.317H231.828M206.602 183.317V209.56M231.828 183.317H257.053M231.828 183.317V209.56M257.053 183.317H282.278M257.053 183.317V209.56M282.278 183.317H307.504M282.278 183.317V209.56M307.504 183.317H332.729M307.504 183.317V209.56M332.729 183.317H357.955M332.729 183.317V209.56M357.955 183.317H383.179M357.955 183.317V209.56M383.179 183.317H408.405M383.179 183.317V209.56M408.405 183.317V209.56H383.179M30.0249 209.56H55.2496H80.4754M80.4754 209.56H105.701M105.701 209.56H130.927M130.927 209.56H156.152M156.152 209.56H181.377M181.377 209.56H206.602M206.602 209.56H231.828M231.828 209.56H257.053M257.053 209.56H282.278M282.278 209.56H307.504M307.504 209.56H332.729M332.729 209.56H357.955M357.955 209.56H383.179" stroke="url(#paint0_radial_87_10405)" stroke-opacity="0.1" stroke-width="1.07476"/>
<path d="M-0.00500488 206.335H408.405V325.634H-0.00500488V206.335Z" fill="url(#paint1_linear_87_10405)"/>
</g>
<g filter="url(#filter0_f_87_10405)">
<path d="M195.065 276.544L-160.557 -199.019L-57.018 -260.737L214.887 263.557L195.065 276.544Z" fill="url(#paint2_linear_87_10405)" fill-opacity="0.5"/>
</g>
</g>
<g style="mix-blend-mode:luminosity" opacity="0.5">
<path d="M49.53 139V129.658H51.546V139H49.53ZM49.278 126.94C49.278 126.58 49.398 126.28 49.638 126.04C49.878 125.788 50.178 125.662 50.538 125.662C50.922 125.662 51.228 125.788 51.456 126.04C51.684 126.28 51.798 126.58 51.798 126.94C51.798 127.288 51.684 127.588 51.456 127.84C51.228 128.08 50.922 128.2 50.538 128.2C50.178 128.2 49.878 128.08 49.638 127.84C49.398 127.588 49.278 127.288 49.278 126.94Z" fill="#FFF700"/>
</g>
</g>
</g>
</g>
</g>
<defs>
<filter id="filter0_f_87_10405" x="-249.365" y="-349.545" width="553.06" height="714.897" filterUnits="userSpaceOnUse" color-interpolation-filters="sRGB">
<feFlood flood-opacity="0" result="BackgroundImageFix"/>
<feBlend mode="normal" in="SourceGraphic" in2="BackgroundImageFix" result="shape"/>
<feGaussianBlur stdDeviation="44.4038" result="effect1_foregroundBlur_87_10405"/>
</filter>
<radialGradient id="paint0_radial_87_10405" cx="0" cy="0" r="1" gradientUnits="userSpaceOnUse" gradientTransform="translate(135.414 -19.3652) rotate(75.627) scale(235.974 340.759)">
<stop stop-color="#B5D3FD"/>
<stop offset="0.884" stop-color="#B5D3FD" stop-opacity="0"/>
</radialGradient>
<linearGradient id="paint1_linear_87_10405" x1="204.2" y1="206.335" x2="204.2" y2="325.634" gradientUnits="userSpaceOnUse">
<stop stop-color="#000211" stop-opacity="0"/>
<stop offset="1" stop-color="#000211"/>
</linearGradient>
<linearGradient id="paint2_linear_87_10405" x1="-9.11471" y1="55.0421" x2="94.4247" y2="-6.67614" gradientUnits="userSpaceOnUse">
<stop stop-color="#6E6EB8"/>
<stop offset="1" stop-color="#335FFF" stop-opacity="0"/>
</linearGradient>
<clipPath id="clip0_87_10405">
<rect x="-0.00500488" y="-0.0100098" width="408.41" height="394.42" rx="20" fill="white"/>
</clipPath>
<clipPath id="clip1_87_10405">
<rect x="-0.00500488" y="-0.0100098" width="408.41" height="394.42" rx="20" fill="white"/>
</clipPath>
<clipPath id="clip2_87_10405">
<rect width="408.41" height="394.42" fill="white" transform="translate(-0.00500488 -0.0100098)"/>
</clipPath>
<clipPath id="clip3_87_10405">
<rect width="408.41" height="394.438" fill="white" transform="translate(-0.00500488 -0.019043)"/>
</clipPath>
</defs>
</svg>
