<svg width="116" height="43" viewBox="0 0 116 43" fill="none" xmlns="http://www.w3.org/2000/svg">
<rect x="0.5" width="115" height="43" rx="21.5" fill="#000529"/>
<g clip-path="url(#clip0_87_10388)">
<g clip-path="url(#clip1_87_10388)">
<path d="M21.875 13.236C21.6702 13.2815 21.4711 13.3493 21.281 13.438C17.961 14.99 15.833 19.328 15.833 23.048C15.833 26.581 18.486 29.483 21.875 29.804V13.236ZM23.125 29.804C26.514 29.484 29.167 26.581 29.167 23.047C29.167 22.709 29.149 22.366 29.115 22.02L23.125 28.009V29.804ZM27.717 17.483C27.3971 16.8839 27.0232 16.3152 26.6 15.784L23.125 19.259V22.075L27.717 17.483ZM25.757 14.86C25.16 14.2777 24.4715 13.7974 23.719 13.438C23.5289 13.3493 23.3298 13.2816 23.125 13.236V17.49L25.757 14.858V14.86ZM28.28 18.687L23.125 23.842V26.242L28.75 20.616L28.86 20.506C28.7133 19.8858 28.5194 19.2777 28.28 18.687Z" fill="#323BFF"/>
</g>
</g>
<path d="M40.6907 18.8004C40.6257 18.2237 40.3577 17.7769 39.8865 17.4601C39.4154 17.1392 38.8224 16.9788 38.1075 16.9788C37.5958 16.9788 37.1531 17.06 36.7794 17.2225C36.4057 17.3809 36.1153 17.6002 35.9082 17.8805C35.7051 18.1567 35.6036 18.4715 35.6036 18.8248C35.6036 19.1213 35.6726 19.3772 35.8107 19.5925C35.9529 19.8077 36.1377 19.9885 36.3651 20.1347C36.5966 20.2768 36.8444 20.3967 37.1084 20.4941C37.3724 20.5876 37.6262 20.6647 37.8699 20.7257L39.0884 21.0425C39.4865 21.1399 39.8947 21.2719 40.313 21.4385C40.7314 21.605 41.1192 21.8243 41.4767 22.0964C41.8341 22.3686 42.1225 22.7057 42.3418 23.1078C42.5652 23.5099 42.6769 23.9912 42.6769 24.5517C42.6769 25.2584 42.4941 25.8859 42.1285 26.4342C41.7671 26.9826 41.2411 27.4151 40.5506 27.7319C39.8642 28.0487 39.0336 28.2071 38.0588 28.2071C37.1246 28.2071 36.3164 28.0589 35.634 27.7624C34.9517 27.4659 34.4176 27.0455 34.0317 26.5013C33.6459 25.9529 33.4326 25.3031 33.392 24.5517H35.2807C35.3172 25.0025 35.4634 25.3782 35.7193 25.6788C35.9793 25.9753 36.3103 26.1966 36.7124 26.3429C37.1185 26.485 37.5633 26.5561 38.0466 26.5561C38.5787 26.5561 39.0519 26.4728 39.4662 26.3063C39.8845 26.1357 40.2135 25.9001 40.4531 25.5996C40.6928 25.295 40.8126 24.9396 40.8126 24.5334C40.8126 24.1638 40.707 23.8612 40.4958 23.6256C40.2886 23.3901 40.0064 23.1951 39.6489 23.0408C39.2956 22.8864 38.8955 22.7504 38.4487 22.6326L36.9744 22.2305C35.9752 21.9584 35.1832 21.5583 34.5983 21.0303C34.0175 20.5023 33.7271 19.8037 33.7271 18.9345C33.7271 18.2156 33.9221 17.5881 34.312 17.0519C34.7019 16.5158 35.2299 16.0995 35.896 15.803C36.5621 15.5024 37.3135 15.3521 38.1502 15.3521C38.995 15.3521 39.7403 15.5004 40.3861 15.7969C41.036 16.0934 41.5477 16.5016 41.9214 17.0215C42.2951 17.5373 42.49 18.1303 42.5063 18.8004H40.6907ZM48.8135 28.1889C47.8915 28.1889 47.0974 27.9919 46.4313 27.5979C45.7693 27.1999 45.2575 26.6414 44.896 25.9225C44.5386 25.1995 44.3599 24.3527 44.3599 23.3819C44.3599 22.4234 44.5386 21.5786 44.896 20.8475C45.2575 20.1164 45.7612 19.5458 46.4069 19.1355C47.0568 18.7253 47.8163 18.5202 48.6855 18.5202C49.2135 18.5202 49.7253 18.6075 50.2208 18.7822C50.7163 18.9568 51.1611 19.231 51.555 19.6046C51.949 19.9783 52.2597 20.4637 52.4872 21.0607C52.7146 21.6537 52.8284 22.3747 52.8284 23.2235V23.8693H45.3895V22.5046H51.0433C51.0433 22.0254 50.9458 21.6009 50.7508 21.2313C50.5559 20.8577 50.2817 20.5632 49.9284 20.3479C49.5791 20.1327 49.1688 20.025 48.6977 20.025C48.1859 20.025 47.7392 20.1509 47.3574 20.4028C46.9796 20.6505 46.6872 20.9754 46.4801 21.3775C46.277 21.7756 46.1754 22.2081 46.1754 22.6752V23.7414C46.1754 24.3669 46.2851 24.899 46.5044 25.3376C46.7278 25.7763 47.0385 26.1114 47.4366 26.3429C47.8346 26.5703 48.2997 26.684 48.8317 26.684C49.177 26.684 49.4917 26.6353 49.7761 26.5378C50.0604 26.4363 50.3061 26.286 50.5132 26.087C50.7204 25.888 50.8788 25.6422 50.9884 25.3498L52.7126 25.6605C52.5745 26.1682 52.3267 26.613 51.9693 26.9948C51.616 27.3725 51.1712 27.6669 50.6351 27.8782C50.103 28.0853 49.4958 28.1889 48.8135 28.1889ZM54.8495 28V18.642H56.6102V20.1286H56.7077C56.8783 19.625 57.1788 19.2289 57.6094 18.9406C58.044 18.6481 58.5354 18.5019 59.0837 18.5019C59.1975 18.5019 59.3315 18.506 59.4858 18.5141C59.6442 18.5222 59.7681 18.5324 59.8575 18.5446V20.287C59.7844 20.2667 59.6544 20.2444 59.4676 20.22C59.2807 20.1916 59.0939 20.1773 58.9071 20.1773C58.4765 20.1773 58.0927 20.2687 57.7556 20.4515C57.4225 20.6302 57.1585 20.88 56.9636 21.2009C56.7686 21.5177 56.6711 21.8792 56.6711 22.2853V28H54.8495ZM69.7242 18.642L66.3307 28H64.3811L60.9815 18.642H62.9372L65.3072 25.8433H65.4046L67.7685 18.642H69.7242ZM71.4361 28V18.642H73.2578V28H71.4361ZM72.3561 17.1981C72.0393 17.1981 71.7671 17.0925 71.5397 16.8813C71.3163 16.6661 71.2046 16.4102 71.2046 16.1137C71.2046 15.8131 71.3163 15.5573 71.5397 15.346C71.7671 15.1308 72.0393 15.0231 72.3561 15.0231C72.6729 15.0231 72.943 15.1308 73.1664 15.346C73.3938 15.5573 73.5075 15.8131 73.5075 16.1137C73.5075 16.4102 73.3938 16.6661 73.1664 16.8813C72.943 17.0925 72.6729 17.1981 72.3561 17.1981ZM79.6502 28.1889C78.7445 28.1889 77.9647 27.9838 77.3107 27.5735C76.6609 27.1592 76.1613 26.5886 75.812 25.8616C75.4627 25.1345 75.2881 24.3019 75.2881 23.3637C75.2881 22.4133 75.4668 21.5745 75.8242 20.8475C76.1816 20.1164 76.6853 19.5458 77.3351 19.1355C77.985 18.7253 78.7506 18.5202 79.6319 18.5202C80.3427 18.5202 80.9763 18.6522 81.5328 18.9162C82.0892 19.1761 82.538 19.5417 82.8792 20.0128C83.2244 20.484 83.4296 21.0343 83.4945 21.6639H81.7216C81.6242 21.2252 81.4008 20.8475 81.0515 20.5307C80.7062 20.2139 80.2432 20.0555 79.6624 20.0555C79.1547 20.0555 78.71 20.1895 78.3282 20.4576C77.9504 20.7216 77.656 21.0993 77.4448 21.5908C77.2336 22.0782 77.128 22.6549 77.128 23.321C77.128 24.0034 77.2315 24.5923 77.4387 25.0878C77.6458 25.5833 77.9383 25.9672 78.316 26.2393C78.6978 26.5114 79.1466 26.6475 79.6624 26.6475C80.0076 26.6475 80.3204 26.5845 80.6006 26.4586C80.885 26.3286 81.1226 26.1438 81.3135 25.9042C81.5084 25.6646 81.6445 25.3762 81.7216 25.0391H83.4945C83.4296 25.6443 83.2326 26.1845 82.9036 26.6597C82.5746 27.1349 82.1339 27.5085 81.5815 27.7807C81.0332 28.0528 80.3894 28.1889 79.6502 28.1889ZM89.4758 28.1889C88.5538 28.1889 87.7597 27.9919 87.0936 27.5979C86.4316 27.1999 85.9198 26.6414 85.5583 25.9225C85.2009 25.1995 85.0222 24.3527 85.0222 23.3819C85.0222 22.4234 85.2009 21.5786 85.5583 20.8475C85.9198 20.1164 86.4235 19.5458 87.0693 19.1355C87.7191 18.7253 88.4786 18.5202 89.3478 18.5202C89.8758 18.5202 90.3876 18.6075 90.8831 18.7822C91.3786 18.9568 91.8234 19.231 92.2174 19.6046C92.6113 19.9783 92.9221 20.4637 93.1495 21.0607C93.377 21.6537 93.4907 22.3747 93.4907 23.2235V23.8693H86.0518V22.5046H91.7056C91.7056 22.0254 91.6081 21.6009 91.4132 21.2313C91.2182 20.8577 90.944 20.5632 90.5907 20.3479C90.2414 20.1327 89.8312 20.025 89.36 20.025C88.8483 20.025 88.4015 20.1509 88.0197 20.4028C87.642 20.6505 87.3495 20.9754 87.1424 21.3775C86.9393 21.7756 86.8378 22.2081 86.8378 22.6752V23.7414C86.8378 24.3669 86.9474 24.899 87.1667 25.3376C87.3901 25.7763 87.7009 26.1114 88.0989 26.3429C88.4969 26.5703 88.962 26.684 89.4941 26.684C89.8393 26.684 90.1541 26.6353 90.4384 26.5378C90.7227 26.4363 90.9684 26.286 91.1756 26.087C91.3827 25.888 91.5411 25.6422 91.6508 25.3498L93.3749 25.6605C93.2368 26.1682 92.9891 26.613 92.6316 26.9948C92.2783 27.3725 91.8335 27.6669 91.2974 27.8782C90.7653 28.0853 90.1581 28.1889 89.4758 28.1889ZM102.524 20.9267L100.873 21.2191C100.804 21.0079 100.694 20.8069 100.544 20.616C100.398 20.4251 100.199 20.2687 99.9471 20.1469C99.6953 20.025 99.3805 19.9641 99.0028 19.9641C98.487 19.9641 98.0564 20.0799 97.7112 20.3114C97.366 20.5388 97.1933 20.8333 97.1933 21.1948C97.1933 21.5075 97.3091 21.7593 97.5406 21.9502C97.7721 22.1411 98.1458 22.2975 98.6616 22.4193L100.148 22.7605C101.009 22.9595 101.651 23.2662 102.073 23.6805C102.496 24.0948 102.707 24.6329 102.707 25.295C102.707 25.8555 102.545 26.355 102.22 26.7937C101.899 27.2283 101.45 27.5695 100.873 27.8172C100.3 28.065 99.6364 28.1889 98.8809 28.1889C97.833 28.1889 96.9781 27.9655 96.316 27.5187C95.654 27.0679 95.2478 26.4282 95.0976 25.5996L96.8583 25.3315C96.9679 25.7905 97.1933 26.1378 97.5345 26.3733C97.8757 26.6048 98.3204 26.7206 98.8688 26.7206C99.4658 26.7206 99.9431 26.5967 100.3 26.349C100.658 26.0971 100.837 25.7905 100.837 25.429C100.837 25.1366 100.727 24.8908 100.508 24.6918C100.292 24.4928 99.9613 24.3425 99.5146 24.241L97.9305 23.8937C97.0573 23.6947 96.4115 23.3779 95.9931 22.9433C95.5789 22.5087 95.3717 21.9584 95.3717 21.2922C95.3717 20.7399 95.5261 20.2565 95.8347 19.8423C96.1434 19.428 96.5699 19.1051 97.1141 18.8736C97.6584 18.638 98.2819 18.5202 98.9845 18.5202C99.9959 18.5202 100.792 18.7395 101.373 19.1782C101.954 19.6128 102.337 20.1956 102.524 20.9267Z" fill="#CCD7FF"/>
<rect x="1" y="0.5" width="114" height="42" rx="21" stroke="#161C44"/>
<defs>
<clipPath id="clip0_87_10388">
<rect width="20" height="20" fill="white" transform="translate(12.5 11.5)"/>
</clipPath>
<clipPath id="clip1_87_10388">
<rect width="20" height="20" fill="white" transform="translate(12.5 11.5)"/>
</clipPath>
</defs>
</svg>
