<svg width="132" height="43" viewBox="0 0 132 43" fill="none" xmlns="http://www.w3.org/2000/svg">
<rect width="132" height="43" rx="21.5" fill="#000529"/>
<g clip-path="url(#clip0_106_21370)">
<g clip-path="url(#clip1_106_21370)">
<path d="M21.375 13.236C21.1702 13.2816 20.9711 13.3493 20.781 13.438C17.461 14.99 15.333 19.328 15.333 23.048C15.333 26.581 17.986 29.483 21.375 29.804V13.236ZM22.625 29.804C26.014 29.484 28.667 26.581 28.667 23.047C28.667 22.709 28.649 22.366 28.615 22.02L22.625 28.009V29.804ZM27.217 17.483C26.8971 16.8839 26.5232 16.3152 26.1 15.784L22.625 19.259V22.075L27.217 17.483ZM25.257 14.86C24.66 14.2778 23.9715 13.7974 23.219 13.438C23.0289 13.3493 22.8298 13.2816 22.625 13.236V17.49L25.257 14.858V14.86ZM27.78 18.687L22.625 23.842V26.242L28.25 20.616L28.36 20.506C28.2133 19.8858 28.0194 19.2777 27.78 18.687Z" fill="#323BFF"/>
</g>
</g>
<path d="M41.7416 15.5227H43.6302V23.7292C43.6302 24.6025 43.4251 25.3762 43.0149 26.0504C42.6047 26.7206 42.0279 27.2486 41.2846 27.6345C40.5414 28.0162 39.6701 28.2071 38.671 28.2071C37.6759 28.2071 36.8067 28.0162 36.0634 27.6345C35.3202 27.2486 34.7434 26.7206 34.3332 26.0504C33.923 25.3762 33.7179 24.6025 33.7179 23.7292V15.5227H35.6004V23.5769C35.6004 24.1415 35.7243 24.6431 35.9721 25.0817C36.2239 25.5204 36.5793 25.8656 37.0382 26.1174C37.4972 26.3652 38.0414 26.4891 38.671 26.4891C39.3046 26.4891 39.8509 26.3652 40.3099 26.1174C40.7729 25.8656 41.1262 25.5204 41.3699 25.0817C41.6177 24.6431 41.7416 24.1415 41.7416 23.5769V15.5227ZM53.2334 20.9267L51.5823 21.2191C51.5133 21.0079 51.4036 20.8069 51.2534 20.616C51.1071 20.4251 50.9081 20.2687 50.6563 20.1469C50.4045 20.025 50.0897 19.9641 49.712 19.9641C49.1962 19.9641 48.7656 20.0799 48.4204 20.3114C48.0751 20.5388 47.9025 20.8333 47.9025 21.1948C47.9025 21.5075 48.0183 21.7593 48.2498 21.9502C48.4813 22.1411 48.855 22.2975 49.3708 22.4193L50.8574 22.7605C51.7184 22.9595 52.3601 23.2662 52.7826 23.6805C53.205 24.0948 53.4162 24.6329 53.4162 25.295C53.4162 25.8555 53.2537 26.355 52.9288 26.7937C52.6079 27.2283 52.1591 27.5695 51.5823 27.8172C51.0097 28.065 50.3456 28.1889 49.5901 28.1889C48.5422 28.1889 47.6873 27.9655 47.0252 27.5187C46.3632 27.0679 45.957 26.4282 45.8067 25.5996L47.5674 25.3315C47.6771 25.7905 47.9025 26.1378 48.2437 26.3733C48.5849 26.6048 49.0296 26.7206 49.5779 26.7206C50.175 26.7206 50.6522 26.5967 51.0097 26.349C51.3671 26.0971 51.5458 25.7905 51.5458 25.429C51.5458 25.1366 51.4361 24.8908 51.2168 24.6918C51.0015 24.4928 50.6705 24.3425 50.2237 24.241L48.6397 23.8937C47.7665 23.6947 47.1207 23.3779 46.7023 22.9433C46.288 22.5087 46.0809 21.9584 46.0809 21.2922C46.0809 20.7399 46.2352 20.2565 46.5439 19.8423C46.8526 19.428 47.2791 19.1051 47.8233 18.8736C48.3676 18.638 48.991 18.5202 49.6937 18.5202C50.705 18.5202 51.5011 18.7395 52.0819 19.1782C52.6627 19.6128 53.0466 20.1956 53.2334 20.9267ZM59.4522 28.1889C58.5302 28.1889 57.7362 27.9919 57.0701 27.5979C56.4081 27.1999 55.8963 26.6414 55.5348 25.9225C55.1774 25.1995 54.9987 24.3527 54.9987 23.3819C54.9987 22.4234 55.1774 21.5786 55.5348 20.8475C55.8963 20.1164 56.3999 19.5458 57.0457 19.1355C57.6956 18.7253 58.4551 18.5202 59.3243 18.5202C59.8523 18.5202 60.3641 18.6075 60.8596 18.7822C61.3551 18.9568 61.7998 19.231 62.1938 19.6046C62.5878 19.9783 62.8985 20.4637 63.126 21.0607C63.3534 21.6537 63.4671 22.3747 63.4671 23.2235V23.8693H56.0283V22.5046H61.6821C61.6821 22.0254 61.5846 21.6009 61.3896 21.2313C61.1947 20.8577 60.9205 20.5632 60.5671 20.3479C60.2178 20.1327 59.8076 20.025 59.3365 20.025C58.8247 20.025 58.3779 20.1509 57.9961 20.4028C57.6184 20.6505 57.326 20.9754 57.1188 21.3775C56.9158 21.7756 56.8142 22.2081 56.8142 22.6752V23.7414C56.8142 24.3669 56.9239 24.899 57.1432 25.3376C57.3666 25.7763 57.6773 26.1114 58.0753 26.3429C58.4734 26.5703 58.9384 26.684 59.4705 26.684C59.8157 26.684 60.1305 26.6353 60.4148 26.5378C60.6991 26.4363 60.9449 26.286 61.152 26.087C61.3592 25.888 61.5176 25.6422 61.6272 25.3498L63.3514 25.6605C63.2133 26.1682 62.9655 26.613 62.6081 26.9948C62.2547 27.3725 61.81 27.6669 61.2739 27.8782C60.7418 28.0853 60.1346 28.1889 59.4522 28.1889ZM80.5381 19.5803H78.6373C78.5641 19.1741 78.4281 18.8167 78.2291 18.508C78.03 18.1993 77.7863 17.9374 77.498 17.7221C77.2096 17.5068 76.8867 17.3444 76.5293 17.2347C76.1759 17.125 75.8002 17.0702 75.4022 17.0702C74.6833 17.0702 74.0395 17.2509 73.4709 17.6124C72.9063 17.9739 72.4595 18.504 72.1306 19.2025C71.8056 19.9011 71.6432 20.7541 71.6432 21.7614C71.6432 22.7768 71.8056 23.6338 72.1306 24.3324C72.4595 25.031 72.9084 25.559 73.477 25.9164C74.0456 26.2738 74.6853 26.4525 75.3961 26.4525C75.7901 26.4525 76.1637 26.3997 76.5171 26.2941C76.8745 26.1845 77.1974 26.024 77.4858 25.8128C77.7742 25.6016 78.0179 25.3437 78.2169 25.0391C78.42 24.7304 78.5601 24.377 78.6373 23.979L80.5381 23.9851C80.4366 24.5984 80.2396 25.163 79.9471 25.6788C79.6588 26.1906 79.2871 26.6333 78.8322 27.0069C78.3814 27.3765 77.8655 27.6629 77.2847 27.866C76.7039 28.069 76.0703 28.1706 75.3839 28.1706C74.3035 28.1706 73.3409 27.9147 72.4961 27.4029C71.6513 26.8871 70.9852 26.1499 70.4978 25.1914C70.0145 24.2329 69.7728 23.0895 69.7728 21.7614C69.7728 20.4292 70.0165 19.2858 70.5039 18.3313C70.9913 17.3728 71.6574 16.6376 72.5022 16.1259C73.347 15.6101 74.3076 15.3521 75.3839 15.3521C76.0459 15.3521 76.6633 15.4476 77.236 15.6385C77.8127 15.8253 78.3306 16.1015 78.7896 16.4671C79.2485 16.8285 79.6283 17.2713 79.9288 17.7952C80.2294 18.3151 80.4325 18.9101 80.5381 19.5803ZM85.3679 28.2071C84.7749 28.2071 84.2387 28.0975 83.7595 27.8782C83.2802 27.6548 82.9004 27.3319 82.6202 26.9095C82.344 26.487 82.2059 25.9692 82.2059 25.3559C82.2059 24.8279 82.3074 24.3933 82.5105 24.0521C82.7136 23.7109 82.9878 23.4408 83.333 23.2418C83.6782 23.0428 84.0641 22.8925 84.4905 22.791C84.917 22.6894 85.3516 22.6123 85.7943 22.5595C86.3548 22.4945 86.8097 22.4417 87.159 22.4011C87.5083 22.3564 87.7622 22.2853 87.9206 22.1878C88.079 22.0904 88.1582 21.932 88.1582 21.7126V21.67C88.1582 21.1379 88.0079 20.7257 87.7073 20.4332C87.4108 20.1408 86.9681 19.9946 86.3792 19.9946C85.7659 19.9946 85.2826 20.1306 84.9292 20.4028C84.5799 20.6708 84.3382 20.9693 84.2042 21.2983L82.4922 20.9084C82.6953 20.3398 82.9918 19.8808 83.3817 19.5315C83.7757 19.1782 84.2286 18.9223 84.7403 18.7639C85.2521 18.6014 85.7903 18.5202 86.3548 18.5202C86.7285 18.5202 87.1245 18.5649 87.5428 18.6542C87.9653 18.7395 88.3592 18.8979 88.7248 19.1294C89.0944 19.361 89.397 19.692 89.6325 20.1225C89.8681 20.549 89.9859 21.1034 89.9859 21.7857V28H88.2069V26.7206H88.1338C88.016 26.9562 87.8393 27.1877 87.6038 27.4151C87.3682 27.6426 87.0656 27.8314 86.696 27.9817C86.3264 28.132 85.8837 28.2071 85.3679 28.2071ZM85.7639 26.745C86.2675 26.745 86.698 26.6455 87.0555 26.4464C87.4169 26.2474 87.6911 25.9875 87.8779 25.6666C88.0688 25.3417 88.1643 24.9944 88.1643 24.6248V23.4185C88.0993 23.4835 87.9734 23.5444 87.7865 23.6013C87.6038 23.6541 87.3946 23.7008 87.159 23.7414C86.9235 23.778 86.694 23.8125 86.4706 23.845C86.2472 23.8734 86.0604 23.8978 85.9101 23.9181C85.5567 23.9628 85.2338 24.0379 84.9414 24.1435C84.653 24.2491 84.4215 24.4014 84.2468 24.6004C84.0763 24.7954 83.991 25.0553 83.991 25.3803C83.991 25.8311 84.1575 26.1723 84.4905 26.4038C84.8236 26.6312 85.248 26.745 85.7639 26.745ZM99.4246 20.9267L97.7735 21.2191C97.7045 21.0079 97.5948 20.8069 97.4446 20.616C97.2983 20.4251 97.0993 20.2687 96.8475 20.1469C96.5957 20.025 96.2809 19.9641 95.9032 19.9641C95.3873 19.9641 94.9568 20.0799 94.6116 20.3114C94.2663 20.5388 94.0937 20.8333 94.0937 21.1948C94.0937 21.5075 94.2095 21.7593 94.441 21.9502C94.6725 22.1411 95.0462 22.2975 95.562 22.4193L97.0485 22.7605C97.9096 22.9595 98.5513 23.2662 98.9737 23.6805C99.3962 24.0948 99.6074 24.6329 99.6074 25.295C99.6074 25.8555 99.4449 26.355 99.12 26.7937C98.7991 27.2283 98.3503 27.5695 97.7735 27.8172C97.2009 28.065 96.5368 28.1889 95.7813 28.1889C94.7334 28.1889 93.8785 27.9655 93.2164 27.5187C92.5544 27.0679 92.1482 26.4282 91.9979 25.5996L93.7586 25.3315C93.8683 25.7905 94.0937 26.1378 94.4349 26.3733C94.7761 26.6048 95.2208 26.7206 95.7691 26.7206C96.3662 26.7206 96.8434 26.5967 97.2009 26.349C97.5583 26.0971 97.737 25.7905 97.737 25.429C97.737 25.1366 97.6273 24.8908 97.408 24.6918C97.1927 24.4928 96.8617 24.3425 96.4149 24.241L94.8309 23.8937C93.9577 23.6947 93.3119 23.3779 92.8935 22.9433C92.4792 22.5087 92.2721 21.9584 92.2721 21.2922C92.2721 20.7399 92.4264 20.2565 92.7351 19.8423C93.0438 19.428 93.4703 19.1051 94.0145 18.8736C94.5588 18.638 95.1822 18.5202 95.8849 18.5202C96.8962 18.5202 97.6923 18.7395 98.2731 19.1782C98.8539 19.6128 99.2378 20.1956 99.4246 20.9267ZM105.643 28.1889C104.721 28.1889 103.927 27.9919 103.261 27.5979C102.599 27.1999 102.087 26.6414 101.726 25.9225C101.369 25.1995 101.19 24.3527 101.19 23.3819C101.19 22.4234 101.369 21.5786 101.726 20.8475C102.087 20.1164 102.591 19.5458 103.237 19.1355C103.887 18.7253 104.646 18.5202 105.515 18.5202C106.043 18.5202 106.555 18.6075 107.051 18.7822C107.546 18.9568 107.991 19.231 108.385 19.6046C108.779 19.9783 109.09 20.4637 109.317 21.0607C109.545 21.6537 109.658 22.3747 109.658 23.2235V23.8693H102.219V22.5046H107.873C107.873 22.0254 107.776 21.6009 107.581 21.2313C107.386 20.8577 107.112 20.5632 106.758 20.3479C106.409 20.1327 105.999 20.025 105.528 20.025C105.016 20.025 104.569 20.1509 104.187 20.4028C103.81 20.6505 103.517 20.9754 103.31 21.3775C103.107 21.7756 103.005 22.2081 103.005 22.6752V23.7414C103.005 24.3669 103.115 24.899 103.334 25.3376C103.558 25.7763 103.868 26.1114 104.267 26.3429C104.665 26.5703 105.13 26.684 105.662 26.684C106.007 26.684 106.322 26.6353 106.606 26.5378C106.89 26.4363 107.136 26.286 107.343 26.087C107.55 25.888 107.709 25.6422 107.818 25.3498L109.543 25.6605C109.404 26.1682 109.157 26.613 108.799 26.9948C108.446 27.3725 108.001 27.6669 107.465 27.8782C106.933 28.0853 106.326 28.1889 105.643 28.1889ZM118.692 20.9267L117.041 21.2191C116.972 21.0079 116.862 20.8069 116.712 20.616C116.566 20.4251 116.367 20.2687 116.115 20.1469C115.863 20.025 115.548 19.9641 115.17 19.9641C114.655 19.9641 114.224 20.0799 113.879 20.3114C113.534 20.5388 113.361 20.8333 113.361 21.1948C113.361 21.5075 113.477 21.7593 113.708 21.9502C113.94 22.1411 114.313 22.2975 114.829 22.4193L116.316 22.7605C117.177 22.9595 117.819 23.2662 118.241 23.6805C118.663 24.0948 118.875 24.6329 118.875 25.295C118.875 25.8555 118.712 26.355 118.387 26.7937C118.066 27.2283 117.618 27.5695 117.041 27.8172C116.468 28.065 115.804 28.1889 115.049 28.1889C114.001 28.1889 113.146 27.9655 112.484 27.5187C111.822 27.0679 111.415 26.4282 111.265 25.5996L113.026 25.3315C113.136 25.7905 113.361 26.1378 113.702 26.3733C114.043 26.6048 114.488 26.7206 115.036 26.7206C115.633 26.7206 116.111 26.5967 116.468 26.349C116.826 26.0971 117.004 25.7905 117.004 25.429C117.004 25.1366 116.895 24.8908 116.675 24.6918C116.46 24.4928 116.129 24.3425 115.682 24.241L114.098 23.8937C113.225 23.6947 112.579 23.3779 112.161 22.9433C111.747 22.5087 111.539 21.9584 111.539 21.2922C111.539 20.7399 111.694 20.2565 112.002 19.8423C112.311 19.428 112.738 19.1051 113.282 18.8736C113.826 18.638 114.45 18.5202 115.152 18.5202C116.164 18.5202 116.96 18.7395 117.54 19.1782C118.121 19.6128 118.505 20.1956 118.692 20.9267Z" fill="#CCD7FF"/>
<rect x="0.5" y="0.5" width="131" height="42" rx="21" stroke="#161C44"/>
<defs>
<clipPath id="clip0_106_21370">
<rect width="20" height="20" fill="white" transform="translate(12 11.5)"/>
</clipPath>
<clipPath id="clip1_106_21370">
<rect width="20" height="20" fill="white" transform="translate(12 11.5)"/>
</clipPath>
</defs>
</svg>
