<svg width="419" height="351" viewBox="0 0 419 351" fill="none" xmlns="http://www.w3.org/2000/svg">
<rect y="-0.0100098" width="419" height="351" rx="8" fill="url(#paint0_linear_507_12365)"/>
<g clip-path="url(#clip0_507_12365)">
<mask id="mask0_507_12365" style="mask-type:alpha" maskUnits="userSpaceOnUse" x="41" y="7" width="336" height="337">
<circle cx="209" cy="175.99" r="168" fill="url(#paint1_radial_507_12365)"/>
</mask>
<g mask="url(#mask0_507_12365)">
<circle cx="209" cy="7.98999" r="167.25" stroke="url(#paint2_angular_507_12365)" stroke-width="1.5"/>
<circle opacity="0.5" cx="209" cy="7.98999" r="168" fill="url(#paint3_angular_507_12365)"/>
<circle cx="209" cy="343.99" r="167.25" stroke="url(#paint4_angular_507_12365)" stroke-width="1.5"/>
<circle opacity="0.1" cx="209" cy="343.99" r="168" fill="url(#paint5_angular_507_12365)"/>
<g filter="url(#filter0_bi_507_12365)">
<rect x="89" y="205.913" width="60" height="60" rx="30" transform="rotate(-90 89 205.913)" fill="#F8F8F8" fill-opacity="0.01"/>
<rect x="89.75" y="205.163" width="58.5" height="58.5" rx="29.25" transform="rotate(-90 89.75 205.163)" stroke="#F8F8F8" stroke-opacity="0.1" stroke-width="1.5"/>
<path fill-rule="evenodd" clip-rule="evenodd" d="M120.058 173.27V173.27C120.026 173.892 119.99 174.603 119.598 175.096V175.095C119.567 175.131 119.534 175.165 119.499 175.198C119.307 175.402 119.062 175.549 118.792 175.623L118.791 175.623L118.791 175.623C118.775 175.627 118.758 175.631 118.74 175.635C118.447 175.703 118.141 175.682 117.86 175.576C117.817 175.562 117.774 175.546 117.733 175.528C117.167 175.258 116.825 174.638 116.526 174.095L116.526 174.095C116.493 174.036 116.461 173.978 116.429 173.921L115.906 172.989L115.906 172.989L115.905 172.988C114.995 171.366 114.085 169.744 113.189 168.114C113.083 167.922 112.975 167.731 112.866 167.541L112.866 167.541L112.866 167.541L112.866 167.541L112.866 167.541C112.561 167.004 112.256 166.469 112.017 165.892C111.994 165.838 111.971 165.784 111.948 165.729L111.948 165.729C111.694 165.126 111.416 164.465 111.55 163.817C111.809 162.567 113.334 161.914 114.419 161.559C114.752 161.452 115.092 161.361 115.437 161.279C115.782 161.197 116.129 161.132 116.475 161.084C117.605 160.928 119.263 160.845 120.04 161.854C120.442 162.377 120.481 163.092 120.516 163.744L120.516 163.744L120.516 163.744C120.519 163.805 120.522 163.865 120.526 163.924C120.563 164.552 120.523 165.171 120.482 165.792V165.792V165.792C120.468 166.006 120.454 166.221 120.444 166.436C120.356 168.209 120.251 169.981 120.146 171.753L120.146 171.755L120.146 171.758C120.12 172.198 120.094 172.639 120.068 173.079C120.064 173.141 120.061 173.205 120.058 173.27L120.058 173.27ZM130.287 172.584C129.91 171.792 129.403 171.07 128.787 170.446C128.707 170.367 128.622 170.294 128.532 170.227C128.449 170.164 128.362 170.106 128.272 170.053C128.18 170.003 128.085 169.957 127.988 169.917C127.796 169.842 127.591 169.808 127.386 169.817C127.189 169.828 126.998 169.882 126.824 169.975C126.561 170.106 126.276 170.316 125.896 170.669C125.86 170.705 125.816 170.746 125.773 170.785C125.755 170.802 125.737 170.818 125.719 170.835C125.471 171.068 125.2 171.346 124.891 171.662L124.891 171.662C124.811 171.743 124.729 171.827 124.644 171.914C124.004 172.561 123.374 173.211 122.748 173.868L121.628 175.03C121.423 175.242 121.236 175.472 121.07 175.715C120.928 175.921 120.828 176.153 120.775 176.397C120.744 176.584 120.749 176.776 120.788 176.962L120.788 176.962C120.79 176.97 120.792 176.978 120.794 176.987C120.882 177.372 121.117 177.707 121.447 177.922C121.778 178.137 122.179 178.216 122.567 178.141C122.628 178.132 122.676 178.122 122.705 178.114L128.678 176.734L128.773 176.712C129.213 176.611 129.655 176.509 130.049 176.28C130.333 176.116 130.602 175.952 130.787 175.624C130.886 175.443 130.946 175.244 130.963 175.039C131.055 174.225 130.63 173.301 130.288 172.585L130.287 172.584ZM114.876 179.918L116.257 179.599L116.266 179.596C116.295 179.589 116.34 179.579 116.393 179.562C116.774 179.46 117.101 179.213 117.304 178.874C117.507 178.535 117.571 178.131 117.483 177.746C117.481 177.738 117.479 177.73 117.477 177.721C117.432 177.537 117.352 177.362 117.243 177.207C117.088 177.011 116.897 176.846 116.679 176.723C116.423 176.577 116.155 176.453 115.878 176.352L114.363 175.799C113.513 175.483 112.663 175.175 111.805 174.874C111.698 174.835 111.594 174.798 111.493 174.762L111.492 174.762L111.492 174.762L111.492 174.762C111.069 174.61 110.698 174.477 110.368 174.376C110.341 174.367 110.314 174.359 110.286 174.351L110.286 174.351C110.233 174.335 110.181 174.319 110.136 174.304C109.641 174.152 109.293 174.089 108.998 174.087C108.801 174.08 108.605 174.116 108.424 174.192C108.235 174.274 108.065 174.394 107.925 174.546C107.856 174.625 107.79 174.707 107.73 174.793C107.673 174.88 107.621 174.971 107.573 175.064C107.521 175.164 107.476 175.267 107.439 175.373C107.158 176.204 107.018 177.076 107.025 177.953C107.03 178.746 107.051 179.764 107.487 180.454C107.592 180.631 107.733 180.784 107.901 180.903C108.211 181.117 108.525 181.146 108.852 181.169C109.308 181.201 109.751 181.098 110.192 180.996L110.284 180.975L114.873 179.915H114.877L114.876 179.918ZM119.079 181.023C118.91 180.785 118.67 180.607 118.394 180.514C118.118 180.421 117.819 180.418 117.541 180.505C117.476 180.527 117.412 180.553 117.35 180.584C117.255 180.632 117.164 180.689 117.079 180.753C116.83 180.937 116.62 181.177 116.43 181.417C116.413 181.438 116.397 181.462 116.38 181.486C116.349 181.532 116.317 181.578 116.28 181.612L115.319 182.933C114.774 183.673 114.237 184.416 113.705 185.17C113.628 185.278 113.554 185.382 113.482 185.483L113.481 185.484C113.228 185.837 113.004 186.149 112.82 186.431C112.806 186.452 112.792 186.474 112.778 186.496C112.747 186.545 112.715 186.595 112.685 186.637C112.4 187.077 112.239 187.398 112.157 187.685C112.095 187.875 112.075 188.077 112.099 188.275C112.125 188.482 112.195 188.681 112.303 188.859C112.361 188.948 112.423 189.035 112.489 189.118C112.558 189.198 112.631 189.274 112.708 189.346C112.79 189.425 112.878 189.497 112.972 189.562C113.635 190.023 114.361 190.355 115.125 190.611C115.76 190.822 116.421 190.948 117.089 190.986C117.203 190.992 117.317 190.989 117.43 190.979C117.535 190.97 117.64 190.955 117.743 190.935C117.847 190.911 117.949 190.881 118.049 190.846C118.244 190.773 118.422 190.66 118.571 190.514C118.712 190.373 118.82 190.203 118.889 190.016C119 189.739 119.073 189.388 119.121 188.866C119.124 188.82 119.129 188.768 119.134 188.715L119.134 188.715C119.137 188.684 119.14 188.652 119.143 188.621C119.172 188.286 119.189 187.905 119.208 187.473C119.214 187.347 119.22 187.217 119.226 187.082C119.273 186.162 119.31 185.247 119.339 184.329L119.401 182.697C119.415 182.321 119.404 181.904 119.299 181.53C119.253 181.351 119.178 181.18 119.079 181.023ZM128.991 182.867C129.439 183.138 129.724 183.357 129.924 183.577L129.922 183.578C130.061 183.721 130.167 183.894 130.232 184.083C130.299 184.281 130.323 184.49 130.303 184.697C130.29 184.802 130.272 184.907 130.249 185.011C130.222 185.113 130.19 185.213 130.153 185.312C130.113 185.418 130.066 185.522 130.011 185.622C129.616 186.328 129.109 186.945 128.534 187.51C128.055 187.978 127.516 188.381 126.932 188.709C126.832 188.764 126.728 188.812 126.622 188.852C126.524 188.89 126.423 188.923 126.321 188.95C126.217 188.973 126.112 188.992 126.007 189.004C125.799 189.025 125.59 189.002 125.392 188.936C125.204 188.871 125.032 188.765 124.889 188.627C124.668 188.425 124.45 188.143 124.178 187.695C124.154 187.653 124.125 187.605 124.095 187.557C124.081 187.533 124.066 187.509 124.052 187.485C123.872 187.185 123.682 186.835 123.465 186.435C123.413 186.339 123.36 186.24 123.304 186.138C122.861 185.332 122.428 184.525 122 183.712L121.231 182.271C121.054 181.939 120.883 181.56 120.813 181.177C120.778 180.996 120.771 180.811 120.793 180.628C120.841 180.34 120.978 180.075 121.185 179.87C121.392 179.665 121.658 179.531 121.946 179.486C122.014 179.477 122.083 179.474 122.152 179.474C122.259 179.476 122.365 179.487 122.47 179.507C122.774 179.563 123.067 179.687 123.344 179.819C123.369 179.831 123.395 179.846 123.421 179.861C123.469 179.888 123.517 179.915 123.565 179.929L125.005 180.692C125.819 181.12 126.626 181.552 127.433 181.995C127.56 182.065 127.683 182.131 127.802 182.195C128.172 182.395 128.499 182.572 128.781 182.741C128.805 182.755 128.828 182.77 128.852 182.785C128.9 182.814 128.948 182.843 128.991 182.867Z" fill="url(#paint6_linear_507_12365)"/>
</g>
<g filter="url(#filter1_bi_507_12365)">
<rect x="123.02" y="86.99" width="60" height="60" rx="30" transform="rotate(-30 123.02 86.99)" fill="#F8F8F8" fill-opacity="0.01"/>
<rect x="124.044" y="87.2645" width="58.5" height="58.5" rx="29.25" transform="rotate(-30 124.044 87.2645)" stroke="#F8F8F8" stroke-opacity="0.1" stroke-width="1.5"/>
<path d="M164.001 83.99C156.114 83.99 150.001 89.767 150.001 97.57C150.001 101.652 151.674 105.178 154.398 107.614C154.627 107.819 154.765 108.105 154.774 108.412L154.85 110.902C154.874 111.696 155.695 112.213 156.422 111.892L159.201 110.665C159.437 110.561 159.701 110.542 159.949 110.61C161.226 110.961 162.585 111.148 164.002 111.148C171.889 111.148 178.002 105.371 178.002 97.568C178.002 89.765 171.888 83.99 164.001 83.99ZM172.408 94.439L168.295 100.964C167.641 102.002 166.24 102.26 165.258 101.524L161.987 99.071C161.687 98.846 161.274 98.847 160.975 99.074L156.557 102.427C155.967 102.874 155.198 102.169 155.592 101.543L159.705 95.018C160.359 93.98 161.76 93.722 162.742 94.458L166.013 96.911C166.313 97.136 166.726 97.135 167.025 96.908L171.442 93.555C172.032 93.108 172.802 93.813 172.408 94.439Z" fill="url(#paint7_linear_507_12365)"/>
</g>
<g filter="url(#filter2_bi_507_12365)">
<rect x="243.02" y="56.99" width="60" height="60" rx="30" transform="rotate(30 243.02 56.99)" fill="#F8F8F8" fill-opacity="0.01"/>
<rect x="243.294" y="58.0145" width="58.5" height="58.5" rx="29.25" transform="rotate(30 243.294 58.0145)" stroke="#F8F8F8" stroke-opacity="0.1" stroke-width="1.5"/>
<g clip-path="url(#clip1_507_12365)">
<path d="M257.611 86.798C258.646 85.504 259.348 83.766 259.163 81.99C257.648 82.065 255.8 82.989 254.73 84.285C253.769 85.394 252.919 87.205 253.14 88.906C254.84 89.053 256.539 88.056 257.611 86.798Z" fill="url(#paint8_linear_507_12365)"/>
<path d="M259.144 89.238C256.675 89.091 254.575 90.639 253.396 90.639C252.217 90.639 250.41 89.312 248.457 89.347C245.915 89.384 243.556 90.822 242.266 93.108C239.613 97.681 241.566 104.465 244.146 108.189C245.399 110.032 246.909 112.061 248.899 111.988C250.779 111.914 251.516 110.771 253.801 110.771C256.086 110.771 256.748 111.988 258.738 111.951C260.802 111.914 262.092 110.107 263.345 108.263C264.782 106.162 265.371 104.134 265.408 104.023C265.371 103.986 261.428 102.474 261.392 97.939C261.355 94.142 264.487 92.336 264.635 92.223C262.866 89.607 260.102 89.312 259.144 89.238Z" fill="url(#paint9_linear_507_12365)"/>
</g>
</g>
<g filter="url(#filter3_bi_507_12365)">
<rect x="329" y="145.913" width="60" height="60" rx="30" transform="rotate(90 329 145.913)" fill="#F8F8F8" fill-opacity="0.01"/>
<rect x="328.25" y="146.663" width="58.5" height="58.5" rx="29.25" transform="rotate(90 328.25 146.663)" stroke="#F8F8F8" stroke-opacity="0.1" stroke-width="1.5"/>
<path d="M307.403 161.99H302.583L302.069 162.501L299.617 167.181L298.901 167.594H290.597V174.589H295.034L295.496 175.051L290.597 184.402V189.99L295.42 189.988L295.936 189.475L298.393 184.793L299.094 184.388H307.403V177.397H302.953L302.503 176.947L307.404 167.591" fill="url(#paint10_linear_507_12365)"/>
</g>
<g filter="url(#filter4_bi_507_12365)">
<rect x="294.98" y="264.836" width="60" height="60" rx="30" transform="rotate(150 294.98 264.836)" fill="#F8F8F8" fill-opacity="0.01"/>
<rect x="293.956" y="264.561" width="58.5" height="58.5" rx="29.25" transform="rotate(150 293.956 264.561)" stroke="#F8F8F8" stroke-opacity="0.1" stroke-width="1.5"/>
<path d="M248.201 240.088C246.711 240.158 245.694 240.396 244.805 240.745C243.885 241.104 243.105 241.585 242.328 242.364C241.552 243.143 241.074 243.924 240.718 244.845C240.373 245.736 240.14 246.754 240.074 248.245C240.008 249.735 239.994 250.215 240.001 254.016C240.008 257.817 240.025 258.294 240.097 259.788C240.168 261.277 240.405 262.294 240.754 263.184C241.113 264.104 241.594 264.884 242.373 265.661C243.152 266.437 243.932 266.914 244.856 267.271C245.746 267.615 246.765 267.85 248.255 267.915C249.745 267.98 250.225 267.995 254.026 267.988C257.827 267.981 258.305 267.964 259.799 267.893C261.293 267.822 262.304 267.584 263.194 267.236C264.114 266.876 264.895 266.396 265.671 265.616C266.447 264.836 266.925 264.055 267.28 263.133C267.625 262.243 267.859 261.224 267.924 259.735C267.989 258.241 268.005 257.764 267.997 253.962C267.989 250.16 267.973 249.684 267.902 248.191C267.831 246.698 267.594 245.684 267.245 244.794C266.885 243.874 266.405 243.094 265.626 242.317C264.847 241.54 264.065 241.063 263.143 240.708C262.252 240.363 261.234 240.128 259.744 240.064C258.254 240 257.774 239.983 253.972 239.99C250.17 239.997 249.694 240.014 248.201 240.086M248.365 265.395C247 265.336 246.259 265.109 245.765 264.919C245.111 264.667 244.645 264.362 244.153 263.875C243.661 263.388 243.358 262.92 243.103 262.267C242.911 261.773 242.68 261.033 242.616 259.668C242.547 258.193 242.532 257.75 242.524 254.012C242.516 250.274 242.53 249.832 242.595 248.356C242.653 246.992 242.881 246.25 243.071 245.756C243.323 245.101 243.627 244.636 244.115 244.144C244.603 243.652 245.07 243.349 245.723 243.094C246.216 242.901 246.957 242.672 248.321 242.607C249.797 242.537 250.24 242.523 253.977 242.515C257.714 242.507 258.158 242.521 259.635 242.586C260.999 242.645 261.741 242.871 262.234 243.062C262.888 243.314 263.354 243.617 263.846 244.106C264.338 244.595 264.641 245.06 264.897 245.715C265.09 246.207 265.319 246.947 265.383 248.312C265.453 249.788 265.469 250.231 265.476 253.968C265.483 257.705 265.47 258.149 265.405 259.624C265.345 260.989 265.119 261.73 264.929 262.225C264.677 262.879 264.373 263.345 263.884 263.837C263.395 264.329 262.929 264.632 262.276 264.887C261.783 265.079 261.042 265.309 259.679 265.374C258.203 265.443 257.76 265.458 254.022 265.466C250.284 265.474 249.841 265.459 248.365 265.395ZM259.778 246.507C259.78 247.435 260.533 248.186 261.461 248.184C262.389 248.182 263.14 247.429 263.138 246.501C263.136 245.573 262.383 244.822 261.455 244.824C260.527 244.826 259.777 245.579 259.778 246.507ZM246.811 254.003C246.819 257.973 250.043 261.185 254.013 261.177C257.983 261.169 261.196 257.945 261.189 253.975C261.181 250.005 257.956 246.792 253.986 246.8C250.016 246.808 246.803 250.033 246.811 254.003ZM249.334 253.998C249.329 251.421 251.414 249.327 253.992 249.322C256.569 249.317 258.663 251.402 258.668 253.98C258.673 256.557 256.588 258.651 254.01 258.656C251.433 258.661 249.339 256.577 249.334 254" fill="url(#paint11_linear_507_12365)"/>
</g>
<g filter="url(#filter5_bi_507_12365)">
<rect x="174.98" y="294.836" width="60" height="60" rx="30" transform="rotate(-150 174.98 294.836)" fill="#F8F8F8" fill-opacity="0.01"/>
<rect x="174.706" y="293.811" width="58.5" height="58.5" rx="29.25" transform="rotate(-150 174.706 293.811)" stroke="#F8F8F8" stroke-opacity="0.1" stroke-width="1.5"/>
<path d="M166.42 251.999L175.891 240.99H173.647L165.423 250.549L158.855 240.99H151.28L161.212 255.445L151.28 266.99H153.524L162.208 256.895L169.144 266.99H176.72L166.42 251.999ZM163.346 255.572L162.34 254.133L154.333 242.68H157.78L164.242 251.923L165.248 253.362L173.648 265.377H170.201L163.347 255.573L163.346 255.572Z" fill="url(#paint12_linear_507_12365)"/>
</g>
</g>
<g filter="url(#filter6_di_507_12365)">
<g clip-path="url(#clip2_507_12365)">
<g filter="url(#filter7_bdi_507_12365)">
<rect x="183" y="149.99" width="52" height="52" rx="26" fill="#F8F8F8" fill-opacity="0.01" shape-rendering="crispEdges"/>
<rect x="183" y="149.99" width="52" height="52" rx="26" fill="#121212" fill-opacity="0.3" shape-rendering="crispEdges"/>
<rect x="183.75" y="150.74" width="50.5" height="50.5" rx="25.25" stroke="url(#paint13_linear_507_12365)" stroke-opacity="0.25" stroke-width="1.5" shape-rendering="crispEdges"/>
<path fill-rule="evenodd" clip-rule="evenodd" d="M209.75 170.74C209.75 170.326 209.414 169.99 209 169.99C208.586 169.99 208.25 170.326 208.25 170.74V172.615C208.25 174.065 207.075 175.24 205.625 175.24H203.75C203.336 175.24 203 175.576 203 175.99C203 176.404 203.336 176.74 203.75 176.74H205.625C207.075 176.74 208.25 177.915 208.25 179.365V181.24C208.25 181.654 208.586 181.99 209 181.99C209.414 181.99 209.75 181.654 209.75 181.24V179.365C209.75 177.915 210.925 176.74 212.375 176.74H214.25C214.664 176.74 215 176.404 215 175.99C215 175.576 214.664 175.24 214.25 175.24H212.375C210.925 175.24 209.75 174.065 209.75 172.615V170.74Z" fill="#F8F8F8"/>
</g>
</g>
<rect x="179.75" y="146.74" width="58.5" height="58.5" rx="29.25" stroke="#F8F8F8" stroke-opacity="0.4" stroke-width="1.5" shape-rendering="crispEdges"/>
</g>
</g>
<defs>
<filter id="filter0_bi_507_12365" x="-11" y="45.9128" width="260" height="260" filterUnits="userSpaceOnUse" color-interpolation-filters="sRGB">
<feFlood flood-opacity="0" result="BackgroundImageFix"/>
<feGaussianBlur in="BackgroundImageFix" stdDeviation="50"/>
<feComposite in2="SourceAlpha" operator="in" result="effect1_backgroundBlur_507_12365"/>
<feBlend mode="normal" in="SourceGraphic" in2="effect1_backgroundBlur_507_12365" result="shape"/>
<feColorMatrix in="SourceAlpha" type="matrix" values="0 0 0 0 0 0 0 0 0 0 0 0 0 0 0 0 0 0 127 0" result="hardAlpha"/>
<feOffset dx="2" dy="4"/>
<feGaussianBlur stdDeviation="8"/>
<feComposite in2="hardAlpha" operator="arithmetic" k2="-1" k3="1"/>
<feColorMatrix type="matrix" values="0 0 0 0 0.972549 0 0 0 0 0.972549 0 0 0 0 0.972549 0 0 0 0.06 0"/>
<feBlend mode="normal" in2="shape" result="effect2_innerShadow_507_12365"/>
</filter>
<filter id="filter1_bi_507_12365" x="23.0195" y="-43.01" width="281.962" height="281.962" filterUnits="userSpaceOnUse" color-interpolation-filters="sRGB">
<feFlood flood-opacity="0" result="BackgroundImageFix"/>
<feGaussianBlur in="BackgroundImageFix" stdDeviation="50"/>
<feComposite in2="SourceAlpha" operator="in" result="effect1_backgroundBlur_507_12365"/>
<feBlend mode="normal" in="SourceGraphic" in2="effect1_backgroundBlur_507_12365" result="shape"/>
<feColorMatrix in="SourceAlpha" type="matrix" values="0 0 0 0 0 0 0 0 0 0 0 0 0 0 0 0 0 0 127 0" result="hardAlpha"/>
<feOffset dx="2" dy="4"/>
<feGaussianBlur stdDeviation="8"/>
<feComposite in2="hardAlpha" operator="arithmetic" k2="-1" k3="1"/>
<feColorMatrix type="matrix" values="0 0 0 0 0.972549 0 0 0 0 0.972549 0 0 0 0 0.972549 0 0 0 0.06 0"/>
<feBlend mode="normal" in2="shape" result="effect2_innerShadow_507_12365"/>
</filter>
<filter id="filter2_bi_507_12365" x="113.02" y="-43.01" width="281.962" height="281.962" filterUnits="userSpaceOnUse" color-interpolation-filters="sRGB">
<feFlood flood-opacity="0" result="BackgroundImageFix"/>
<feGaussianBlur in="BackgroundImageFix" stdDeviation="50"/>
<feComposite in2="SourceAlpha" operator="in" result="effect1_backgroundBlur_507_12365"/>
<feBlend mode="normal" in="SourceGraphic" in2="effect1_backgroundBlur_507_12365" result="shape"/>
<feColorMatrix in="SourceAlpha" type="matrix" values="0 0 0 0 0 0 0 0 0 0 0 0 0 0 0 0 0 0 127 0" result="hardAlpha"/>
<feOffset dx="2" dy="4"/>
<feGaussianBlur stdDeviation="8"/>
<feComposite in2="hardAlpha" operator="arithmetic" k2="-1" k3="1"/>
<feColorMatrix type="matrix" values="0 0 0 0 0.972549 0 0 0 0 0.972549 0 0 0 0 0.972549 0 0 0 0.06 0"/>
<feBlend mode="normal" in2="shape" result="effect2_innerShadow_507_12365"/>
</filter>
<filter id="filter3_bi_507_12365" x="169" y="45.9128" width="260" height="260" filterUnits="userSpaceOnUse" color-interpolation-filters="sRGB">
<feFlood flood-opacity="0" result="BackgroundImageFix"/>
<feGaussianBlur in="BackgroundImageFix" stdDeviation="50"/>
<feComposite in2="SourceAlpha" operator="in" result="effect1_backgroundBlur_507_12365"/>
<feBlend mode="normal" in="SourceGraphic" in2="effect1_backgroundBlur_507_12365" result="shape"/>
<feColorMatrix in="SourceAlpha" type="matrix" values="0 0 0 0 0 0 0 0 0 0 0 0 0 0 0 0 0 0 127 0" result="hardAlpha"/>
<feOffset dx="2" dy="4"/>
<feGaussianBlur stdDeviation="8"/>
<feComposite in2="hardAlpha" operator="arithmetic" k2="-1" k3="1"/>
<feColorMatrix type="matrix" values="0 0 0 0 0.972549 0 0 0 0 0.972549 0 0 0 0 0.972549 0 0 0 0.06 0"/>
<feBlend mode="normal" in2="shape" result="effect2_innerShadow_507_12365"/>
</filter>
<filter id="filter4_bi_507_12365" x="113.019" y="112.874" width="281.962" height="281.962" filterUnits="userSpaceOnUse" color-interpolation-filters="sRGB">
<feFlood flood-opacity="0" result="BackgroundImageFix"/>
<feGaussianBlur in="BackgroundImageFix" stdDeviation="50"/>
<feComposite in2="SourceAlpha" operator="in" result="effect1_backgroundBlur_507_12365"/>
<feBlend mode="normal" in="SourceGraphic" in2="effect1_backgroundBlur_507_12365" result="shape"/>
<feColorMatrix in="SourceAlpha" type="matrix" values="0 0 0 0 0 0 0 0 0 0 0 0 0 0 0 0 0 0 127 0" result="hardAlpha"/>
<feOffset dx="2" dy="4"/>
<feGaussianBlur stdDeviation="8"/>
<feComposite in2="hardAlpha" operator="arithmetic" k2="-1" k3="1"/>
<feColorMatrix type="matrix" values="0 0 0 0 0.972549 0 0 0 0 0.972549 0 0 0 0 0.972549 0 0 0 0.06 0"/>
<feBlend mode="normal" in2="shape" result="effect2_innerShadow_507_12365"/>
</filter>
<filter id="filter5_bi_507_12365" x="23.019" y="112.874" width="281.962" height="281.962" filterUnits="userSpaceOnUse" color-interpolation-filters="sRGB">
<feFlood flood-opacity="0" result="BackgroundImageFix"/>
<feGaussianBlur in="BackgroundImageFix" stdDeviation="50"/>
<feComposite in2="SourceAlpha" operator="in" result="effect1_backgroundBlur_507_12365"/>
<feBlend mode="normal" in="SourceGraphic" in2="effect1_backgroundBlur_507_12365" result="shape"/>
<feColorMatrix in="SourceAlpha" type="matrix" values="0 0 0 0 0 0 0 0 0 0 0 0 0 0 0 0 0 0 127 0" result="hardAlpha"/>
<feOffset dx="2" dy="4"/>
<feGaussianBlur stdDeviation="8"/>
<feComposite in2="hardAlpha" operator="arithmetic" k2="-1" k3="1"/>
<feColorMatrix type="matrix" values="0 0 0 0 0.972549 0 0 0 0 0.972549 0 0 0 0 0.972549 0 0 0 0.06 0"/>
<feBlend mode="normal" in2="shape" result="effect2_innerShadow_507_12365"/>
</filter>
<filter id="filter6_di_507_12365" x="171" y="145.99" width="76" height="100" filterUnits="userSpaceOnUse" color-interpolation-filters="sRGB">
<feFlood flood-opacity="0" result="BackgroundImageFix"/>
<feColorMatrix in="SourceAlpha" type="matrix" values="0 0 0 0 0 0 0 0 0 0 0 0 0 0 0 0 0 0 127 0" result="hardAlpha"/>
<feMorphology radius="16" operator="erode" in="SourceAlpha" result="effect1_dropShadow_507_12365"/>
<feOffset dy="32"/>
<feGaussianBlur stdDeviation="12"/>
<feComposite in2="hardAlpha" operator="out"/>
<feColorMatrix type="matrix" values="0 0 0 0 0 0 0 0 0 0 0 0 0 0 0 0 0 0 0.4 0"/>
<feBlend mode="multiply" in2="BackgroundImageFix" result="effect1_dropShadow_507_12365"/>
<feBlend mode="normal" in="SourceGraphic" in2="effect1_dropShadow_507_12365" result="shape"/>
<feColorMatrix in="SourceAlpha" type="matrix" values="0 0 0 0 0 0 0 0 0 0 0 0 0 0 0 0 0 0 127 0" result="hardAlpha"/>
<feOffset/>
<feGaussianBlur stdDeviation="4"/>
<feComposite in2="hardAlpha" operator="arithmetic" k2="-1" k3="1"/>
<feColorMatrix type="matrix" values="0 0 0 0 0.972549 0 0 0 0 0.972549 0 0 0 0 0.972549 0 0 0 0.25 0"/>
<feBlend mode="normal" in2="shape" result="effect2_innerShadow_507_12365"/>
</filter>
<filter id="filter7_bdi_507_12365" x="171" y="137.99" width="76" height="104" filterUnits="userSpaceOnUse" color-interpolation-filters="sRGB">
<feFlood flood-opacity="0" result="BackgroundImageFix"/>
<feGaussianBlur in="BackgroundImageFix" stdDeviation="6"/>
<feComposite in2="SourceAlpha" operator="in" result="effect1_backgroundBlur_507_12365"/>
<feColorMatrix in="SourceAlpha" type="matrix" values="0 0 0 0 0 0 0 0 0 0 0 0 0 0 0 0 0 0 127 0" result="hardAlpha"/>
<feMorphology radius="16" operator="erode" in="SourceAlpha" result="effect2_dropShadow_507_12365"/>
<feOffset dy="32"/>
<feGaussianBlur stdDeviation="12"/>
<feComposite in2="hardAlpha" operator="out"/>
<feColorMatrix type="matrix" values="0 0 0 0 0 0 0 0 0 0 0 0 0 0 0 0 0 0 0.4 0"/>
<feBlend mode="multiply" in2="effect1_backgroundBlur_507_12365" result="effect2_dropShadow_507_12365"/>
<feBlend mode="normal" in="SourceGraphic" in2="effect2_dropShadow_507_12365" result="shape"/>
<feColorMatrix in="SourceAlpha" type="matrix" values="0 0 0 0 0 0 0 0 0 0 0 0 0 0 0 0 0 0 127 0" result="hardAlpha"/>
<feOffset/>
<feGaussianBlur stdDeviation="4"/>
<feComposite in2="hardAlpha" operator="arithmetic" k2="-1" k3="1"/>
<feColorMatrix type="matrix" values="0 0 0 0 0.972549 0 0 0 0 0.972549 0 0 0 0 0.972549 0 0 0 0.25 0"/>
<feBlend mode="normal" in2="shape" result="effect3_innerShadow_507_12365"/>
</filter>
<linearGradient id="paint0_linear_507_12365" x1="209.5" y1="-0.0100098" x2="209.5" y2="350.99" gradientUnits="userSpaceOnUse">
<stop/>
<stop offset="1" stop-color="#002478" stop-opacity="0"/>
</linearGradient>
<radialGradient id="paint1_radial_507_12365" cx="0" cy="0" r="1" gradientUnits="userSpaceOnUse" gradientTransform="translate(209 28) rotate(89.1862) scale(528.053)">
<stop stop-color="#D9D9D9"/>
<stop offset="1" stop-color="#737373" stop-opacity="0"/>
</radialGradient>
<radialGradient id="paint2_angular_507_12365" cx="0" cy="0" r="1" gradientUnits="userSpaceOnUse" gradientTransform="translate(209 7.98999) rotate(90) scale(168)">
<stop offset="0.168962" stop-color="white" stop-opacity="0"/>
<stop offset="0.805094" stop-color="white" stop-opacity="0"/>
<stop offset="0.99975" stop-color="white" stop-opacity="0.15"/>
</radialGradient>
<radialGradient id="paint3_angular_507_12365" cx="0" cy="0" r="1" gradientUnits="userSpaceOnUse" gradientTransform="translate(209 7.98999) rotate(90) scale(168)">
<stop offset="0.168962" stop-color="white" stop-opacity="0"/>
<stop offset="0.805094" stop-color="white" stop-opacity="0"/>
<stop offset="0.99975" stop-color="white" stop-opacity="0.15"/>
</radialGradient>
<radialGradient id="paint4_angular_507_12365" cx="0" cy="0" r="1" gradientUnits="userSpaceOnUse" gradientTransform="translate(209 343.99) rotate(90) scale(168)">
<stop offset="0.352013" stop-color="white" stop-opacity="0"/>
<stop offset="0.49798" stop-color="white" stop-opacity="0.15"/>
<stop offset="0.648457" stop-color="white" stop-opacity="0"/>
</radialGradient>
<radialGradient id="paint5_angular_507_12365" cx="0" cy="0" r="1" gradientUnits="userSpaceOnUse" gradientTransform="translate(209 343.99) rotate(90) scale(168)">
<stop offset="0.352013" stop-color="white" stop-opacity="0"/>
<stop offset="0.49798" stop-color="white" stop-opacity="0.15"/>
<stop offset="0.648457" stop-color="white" stop-opacity="0"/>
</radialGradient>
<linearGradient id="paint6_linear_507_12365" x1="119" y1="160.99" x2="127.5" y2="211" gradientUnits="userSpaceOnUse">
<stop stop-color="#FF5100" stop-opacity="0.9"/>
<stop offset="1" stop-color="#F8F8F8" stop-opacity="0.3"/>
</linearGradient>
<linearGradient id="paint7_linear_507_12365" x1="164" y1="115.5" x2="164.001" y2="83.99" gradientUnits="userSpaceOnUse">
<stop stop-color="#F8F8F8" stop-opacity="0.3"/>
<stop offset="1" stop-color="#04B9F6" stop-opacity="0.9"/>
</linearGradient>
<linearGradient id="paint8_linear_507_12365" x1="256.149" y1="81.99" x2="256.149" y2="88.9204" gradientUnits="userSpaceOnUse">
<stop stop-color="#F8F8F8" stop-opacity="0.9"/>
<stop offset="1" stop-color="#F8F8F8" stop-opacity="0.3"/>
</linearGradient>
<linearGradient id="paint9_linear_507_12365" x1="253.204" y1="89.2281" x2="253.204" y2="111.99" gradientUnits="userSpaceOnUse">
<stop stop-color="#F8F8F8" stop-opacity="0.9"/>
<stop offset="1" stop-color="#F8F8F8" stop-opacity="0.3"/>
</linearGradient>
<linearGradient id="paint10_linear_507_12365" x1="299" y1="161.99" x2="302" y2="194" gradientUnits="userSpaceOnUse">
<stop stop-color="#FFEE00"/>
<stop offset="1" stop-color="#BD7501"/>
</linearGradient>
<linearGradient id="paint11_linear_507_12365" x1="240" y1="240" x2="263" y2="268" gradientUnits="userSpaceOnUse">
<stop stop-color="#4368CA"/>
<stop offset="0.235867" stop-color="#B33BA1"/>
<stop offset="0.440116" stop-color="#FF593F"/>
<stop offset="1" stop-color="#FFE600" stop-opacity="0.3"/>
</linearGradient>
<linearGradient id="paint12_linear_507_12365" x1="164" y1="240.99" x2="164" y2="266.99" gradientUnits="userSpaceOnUse">
<stop stop-color="#F8F8F8" stop-opacity="0.9"/>
<stop offset="1" stop-color="#F8F8F8" stop-opacity="0.3"/>
</linearGradient>
<linearGradient id="paint13_linear_507_12365" x1="209" y1="149.99" x2="231.621" y2="207.092" gradientUnits="userSpaceOnUse">
<stop stop-color="white" stop-opacity="0.4"/>
<stop offset="0.4" stop-color="white" stop-opacity="0.01"/>
<stop offset="0.6" stop-color="white" stop-opacity="0.01"/>
<stop offset="1" stop-color="white" stop-opacity="0.1"/>
</linearGradient>
<clipPath id="clip0_507_12365">
<rect x="41" y="7.98999" width="336" height="336" rx="168" fill="white"/>
</clipPath>
<clipPath id="clip1_507_12365">
<rect width="32" height="32" fill="white" transform="translate(238.001 81.99)"/>
</clipPath>
<clipPath id="clip2_507_12365">
<rect x="179" y="145.99" width="60" height="60" rx="30" fill="white"/>
</clipPath>
</defs>
</svg>
