<svg width="456" height="365" viewBox="0 0 456 365" fill="none" xmlns="http://www.w3.org/2000/svg">
<rect x="19" y="7" width="419" height="351" rx="8" fill="url(#paint0_linear_106_13698)"/>
<rect opacity="0.5" x="70" y="25" width="316" height="316" rx="158" fill="url(#paint1_angular_106_13698)"/>
<rect opacity="0.5" x="0.75" y="-0.75" width="246.5" height="246.5" rx="123.25" transform="matrix(1 0 0 -1 104 305.5)" stroke="url(#paint2_angular_106_13698)" stroke-width="1.5"/>
<rect opacity="0.5" width="176" height="176" rx="88" transform="matrix(1 0 0 -1 140 271)" fill="url(#paint3_angular_106_13698)"/>
<rect opacity="0.5" x="315.25" y="270.25" width="174.5" height="174.5" rx="87.25" transform="rotate(180 315.25 270.25)" stroke="url(#paint4_angular_106_13698)" stroke-width="1.5"/>
<mask id="mask0_106_13698" style="mask-type:alpha" maskUnits="userSpaceOnUse" x="60" y="20" width="336" height="326">
<rect x="60" y="20" width="336" height="326" fill="url(#paint5_linear_106_13698)"/>
</mask>
<g mask="url(#mask0_106_13698)">
<g filter="url(#filter0_bi_106_13698)">
<rect x="48" y="207" width="48" height="48" rx="24" transform="rotate(-90 48 207)" fill="#F8F8F8" fill-opacity="0.01"/>
<rect x="48.75" y="206.25" width="46.5" height="46.5" rx="23.25" transform="rotate(-90 48.75 206.25)" stroke="#F8F8F8" stroke-opacity="0.1" stroke-width="1.5"/>
<path d="M72 172.5C66.0848 172.5 61.5 176.833 61.5 182.685C61.5 185.747 62.7547 188.391 64.7977 190.218C64.9695 190.372 65.073 190.586 65.0797 190.817L65.1367 192.684C65.1547 193.28 65.7705 193.667 66.3157 193.427L68.4 192.506C68.577 192.428 68.775 192.414 68.961 192.465C69.9187 192.728 70.938 192.868 72.0007 192.868C77.916 192.868 82.5007 188.536 82.5007 182.684C82.5007 176.831 77.9153 172.5 72 172.5ZM78.3053 180.337L75.2205 185.231C74.73 186.009 73.6792 186.203 72.9427 185.651L70.4895 183.811C70.2645 183.642 69.9548 183.643 69.7305 183.813L66.417 186.328C65.9745 186.663 65.3978 186.134 65.6933 185.665L68.778 180.771C69.2685 179.992 70.3193 179.799 71.0557 180.351L73.509 182.191C73.734 182.359 74.0437 182.359 74.268 182.189L77.5807 179.674C78.0233 179.338 78.6007 179.867 78.3053 180.337Z" fill="url(#paint6_linear_106_13698)"/>
</g>
<g filter="url(#filter1_bi_106_13698)">
<rect x="112" y="213" width="60" height="60" rx="30" transform="rotate(-90 112 213)" fill="#F8F8F8" fill-opacity="0.01"/>
<rect x="112.75" y="212.25" width="58.5" height="58.5" rx="29.25" transform="rotate(-90 112.75 212.25)" stroke="#F8F8F8" stroke-opacity="0.1" stroke-width="1.5"/>
<path d="M145.159 173.207C146.064 172.075 146.678 170.554 146.517 169C145.191 169.066 143.574 169.874 142.638 171.008C141.797 171.979 141.053 173.563 141.246 175.051C142.734 175.18 144.221 174.308 145.159 173.207Z" fill="url(#paint7_linear_106_13698)"/>
<path d="M146.5 175.342C144.34 175.213 142.502 176.568 141.471 176.568C140.439 176.568 138.858 175.407 137.149 175.437C134.925 175.47 132.861 176.728 131.732 178.728C129.41 182.73 131.119 188.666 133.377 191.924C134.473 193.537 135.794 195.312 137.536 195.248C139.181 195.183 139.826 194.183 141.825 194.183C143.824 194.183 144.404 195.248 146.145 195.216C147.951 195.183 149.08 193.602 150.176 191.989C151.433 190.15 151.949 188.376 151.981 188.279C151.949 188.246 148.499 186.923 148.467 182.955C148.435 179.633 151.175 178.053 151.305 177.954C149.757 175.665 147.338 175.407 146.5 175.342Z" fill="url(#paint8_linear_106_13698)"/>
</g>
<g filter="url(#filter2_di_106_13698)">
<g clip-path="url(#clip0_106_13698)">
<g filter="url(#filter3_bdi_106_13698)">
<rect x="196" y="151" width="64" height="64" rx="32" fill="#F8F8F8" fill-opacity="0.01" shape-rendering="crispEdges"/>
<rect x="196" y="151" width="64" height="64" rx="32" fill="#121212" fill-opacity="0.3" shape-rendering="crispEdges"/>
<rect x="196.75" y="151.75" width="62.5" height="62.5" rx="31.25" stroke="url(#paint9_linear_106_13698)" stroke-opacity="0.25" stroke-width="1.5" shape-rendering="crispEdges"/>
<path fill-rule="evenodd" clip-rule="evenodd" d="M229.25 174.25C229.25 173.56 228.69 173 228 173C227.31 173 226.75 173.56 226.75 174.25V177.75C226.75 179.959 224.959 181.75 222.75 181.75H219.25C218.56 181.75 218 182.31 218 183C218 183.69 218.56 184.25 219.25 184.25H222.75C224.959 184.25 226.75 186.041 226.75 188.25V191.75C226.75 192.44 227.31 193 228 193C228.69 193 229.25 192.44 229.25 191.75V188.25C229.25 186.041 231.041 184.25 233.25 184.25H236.75C237.44 184.25 238 183.69 238 183C238 182.31 237.44 181.75 236.75 181.75H233.25C231.041 181.75 229.25 179.959 229.25 177.75V174.25Z" fill="#F8F8F8"/>
</g>
</g>
<rect x="188.75" y="143.75" width="78.5" height="78.5" rx="39.25" stroke="#F8F8F8" stroke-opacity="0.4" stroke-width="1.5" shape-rendering="crispEdges"/>
</g>
<g filter="url(#filter4_bi_106_13698)">
<rect x="284" y="213" width="60" height="60" rx="30" transform="rotate(-90 284 213)" fill="#F8F8F8" fill-opacity="0.01"/>
<rect x="284.75" y="212.25" width="58.5" height="58.5" rx="29.25" transform="rotate(-90 284.75 212.25)" stroke="#F8F8F8" stroke-opacity="0.1" stroke-width="1.5"/>
<path d="M316.118 181.258L324.405 171.625H322.441L315.245 179.989L309.498 171.625H302.87L311.561 184.273L302.87 194.375H304.834L312.432 185.542L318.501 194.375H325.13L316.118 181.258ZM313.428 184.384L312.548 183.125L305.541 173.104H308.558L314.212 181.191L315.092 182.45L322.442 192.964H319.426L313.429 184.385L313.428 184.384Z" fill="url(#paint10_linear_106_13698)"/>
</g>
<g filter="url(#filter5_bi_106_13698)">
<rect x="360" y="207" width="48" height="48" rx="24" transform="rotate(-90 360 207)" fill="#F8F8F8" fill-opacity="0.01"/>
<rect x="360.75" y="206.25" width="46.5" height="46.5" rx="23.25" transform="rotate(-90 360.75 206.25)" stroke="#F8F8F8" stroke-opacity="0.1" stroke-width="1.5"/>
<path d="M390.302 172.5H386.687L386.302 172.883L384.463 176.393L383.926 176.703H377.698V181.949H381.026L381.372 182.296L377.698 189.309V193.5L381.315 193.498L381.702 193.114L383.545 189.602L384.071 189.299H390.302V184.055H386.965L386.627 183.718L390.303 176.701" fill="url(#paint11_linear_106_13698)"/>
</g>
</g>
<mask id="mask1_106_13698" style="mask-type:alpha" maskUnits="userSpaceOnUse" x="87" y="60" width="282" height="282">
<circle cx="228" cy="201" r="141" fill="url(#paint12_radial_106_13698)"/>
</mask>
<g mask="url(#mask1_106_13698)">
<path opacity="0.1" d="M296.75 326.5C296.75 326.914 296.414 327.25 296 327.25C295.586 327.25 295.25 326.914 295.25 326.5L296.75 326.5ZM295.25 326.5L295.25 289L296.75 289L296.75 326.5L295.25 326.5ZM280 273.75L244 273.75L244 272.25L280 272.25L280 273.75ZM227.25 257L227.25 223L228.75 223L228.75 257L227.25 257ZM244 273.75C234.749 273.75 227.25 266.251 227.25 257L228.75 257C228.75 265.422 235.578 272.25 244 272.25L244 273.75ZM295.25 289C295.25 280.578 288.422 273.75 280 273.75L280 272.25C289.251 272.25 296.75 279.749 296.75 289L295.25 289Z" fill="#F8F8F8"/>
<path opacity="0.1" d="M159.25 326.5C159.25 326.914 159.586 327.25 160 327.25C160.414 327.25 160.75 326.914 160.75 326.5L159.25 326.5ZM160.75 326.5L160.75 289L159.25 289L159.25 326.5L160.75 326.5ZM176 273.75L212 273.75L212 272.25L176 272.25L176 273.75ZM228.75 257L228.75 223L227.25 223L227.25 257L228.75 257ZM212 273.75C221.251 273.75 228.75 266.251 228.75 257L227.25 257C227.25 265.422 220.422 272.25 212 272.25L212 273.75ZM160.75 289C160.75 280.578 167.578 273.75 176 273.75L176 272.25C166.749 272.25 159.25 279.749 159.25 289L160.75 289Z" fill="#F8F8F8"/>
<g filter="url(#filter6_bdi_106_13698)">
<circle cx="228" cy="222" r="6" fill="#F8F8F8" fill-opacity="0.01" shape-rendering="crispEdges"/>
<circle cx="228" cy="222" r="6" fill="#121212" fill-opacity="0.3" shape-rendering="crispEdges"/>
<circle cx="228" cy="222" r="5.25" stroke="url(#paint13_linear_106_13698)" stroke-opacity="0.25" stroke-width="1.5" shape-rendering="crispEdges"/>
</g>
<circle cx="228" cy="222" r="3" fill="#F8F8F8"/>
</g>
<g filter="url(#filter7_bdi_106_13698)">
<circle cx="228" cy="144" r="6" fill="#F8F8F8" fill-opacity="0.01" shape-rendering="crispEdges"/>
<circle cx="228" cy="144" r="6" fill="#121212" fill-opacity="0.3" shape-rendering="crispEdges"/>
<circle cx="228" cy="144" r="5.25" stroke="url(#paint14_linear_106_13698)" stroke-opacity="0.25" stroke-width="1.5" shape-rendering="crispEdges"/>
</g>
<circle cx="228" cy="144" r="3" fill="#F8F8F8"/>
<path d="M228 143.5V1" stroke="url(#paint15_linear_106_13698)" stroke-opacity="0.1" stroke-width="1.5" stroke-linecap="round"/>
<g filter="url(#filter8_d_106_13698)">
<rect x="190" y="289" width="76" height="28" rx="8" fill="#F8F8F8" fill-opacity="0.05" style="mix-blend-mode:luminosity" shape-rendering="crispEdges"/>
<rect x="190.5" y="289.5" width="75" height="27" rx="7.5" stroke="url(#paint16_linear_106_13698)" stroke-opacity="0.25" shape-rendering="crispEdges"/>
<rect x="206" y="301" width="44" height="4" rx="1" fill="#F8F8F8" fill-opacity="0.95"/>
</g>
<defs>
<filter id="filter0_bi_106_13698" x="-52" y="59" width="248" height="248" filterUnits="userSpaceOnUse" color-interpolation-filters="sRGB">
<feFlood flood-opacity="0" result="BackgroundImageFix"/>
<feGaussianBlur in="BackgroundImageFix" stdDeviation="50"/>
<feComposite in2="SourceAlpha" operator="in" result="effect1_backgroundBlur_106_13698"/>
<feBlend mode="normal" in="SourceGraphic" in2="effect1_backgroundBlur_106_13698" result="shape"/>
<feColorMatrix in="SourceAlpha" type="matrix" values="0 0 0 0 0 0 0 0 0 0 0 0 0 0 0 0 0 0 127 0" result="hardAlpha"/>
<feOffset dx="2" dy="4"/>
<feGaussianBlur stdDeviation="8"/>
<feComposite in2="hardAlpha" operator="arithmetic" k2="-1" k3="1"/>
<feColorMatrix type="matrix" values="0 0 0 0 0.972549 0 0 0 0 0.972549 0 0 0 0 0.972549 0 0 0 0.06 0"/>
<feBlend mode="normal" in2="shape" result="effect2_innerShadow_106_13698"/>
</filter>
<filter id="filter1_bi_106_13698" x="12" y="53" width="260" height="260" filterUnits="userSpaceOnUse" color-interpolation-filters="sRGB">
<feFlood flood-opacity="0" result="BackgroundImageFix"/>
<feGaussianBlur in="BackgroundImageFix" stdDeviation="50"/>
<feComposite in2="SourceAlpha" operator="in" result="effect1_backgroundBlur_106_13698"/>
<feBlend mode="normal" in="SourceGraphic" in2="effect1_backgroundBlur_106_13698" result="shape"/>
<feColorMatrix in="SourceAlpha" type="matrix" values="0 0 0 0 0 0 0 0 0 0 0 0 0 0 0 0 0 0 127 0" result="hardAlpha"/>
<feOffset dx="2" dy="4"/>
<feGaussianBlur stdDeviation="8"/>
<feComposite in2="hardAlpha" operator="arithmetic" k2="-1" k3="1"/>
<feColorMatrix type="matrix" values="0 0 0 0 0.972549 0 0 0 0 0.972549 0 0 0 0 0.972549 0 0 0 0.06 0"/>
<feBlend mode="normal" in2="shape" result="effect2_innerShadow_106_13698"/>
</filter>
<filter id="filter2_di_106_13698" x="180" y="143" width="96" height="120" filterUnits="userSpaceOnUse" color-interpolation-filters="sRGB">
<feFlood flood-opacity="0" result="BackgroundImageFix"/>
<feColorMatrix in="SourceAlpha" type="matrix" values="0 0 0 0 0 0 0 0 0 0 0 0 0 0 0 0 0 0 127 0" result="hardAlpha"/>
<feMorphology radius="16" operator="erode" in="SourceAlpha" result="effect1_dropShadow_106_13698"/>
<feOffset dy="32"/>
<feGaussianBlur stdDeviation="12"/>
<feComposite in2="hardAlpha" operator="out"/>
<feColorMatrix type="matrix" values="0 0 0 0 0 0 0 0 0 0 0 0 0 0 0 0 0 0 0.4 0"/>
<feBlend mode="multiply" in2="BackgroundImageFix" result="effect1_dropShadow_106_13698"/>
<feBlend mode="normal" in="SourceGraphic" in2="effect1_dropShadow_106_13698" result="shape"/>
<feColorMatrix in="SourceAlpha" type="matrix" values="0 0 0 0 0 0 0 0 0 0 0 0 0 0 0 0 0 0 127 0" result="hardAlpha"/>
<feOffset/>
<feGaussianBlur stdDeviation="4"/>
<feComposite in2="hardAlpha" operator="arithmetic" k2="-1" k3="1"/>
<feColorMatrix type="matrix" values="0 0 0 0 0.972549 0 0 0 0 0.972549 0 0 0 0 0.972549 0 0 0 0.25 0"/>
<feBlend mode="normal" in2="shape" result="effect2_innerShadow_106_13698"/>
</filter>
<filter id="filter3_bdi_106_13698" x="184" y="139" width="88" height="116" filterUnits="userSpaceOnUse" color-interpolation-filters="sRGB">
<feFlood flood-opacity="0" result="BackgroundImageFix"/>
<feGaussianBlur in="BackgroundImageFix" stdDeviation="6"/>
<feComposite in2="SourceAlpha" operator="in" result="effect1_backgroundBlur_106_13698"/>
<feColorMatrix in="SourceAlpha" type="matrix" values="0 0 0 0 0 0 0 0 0 0 0 0 0 0 0 0 0 0 127 0" result="hardAlpha"/>
<feMorphology radius="16" operator="erode" in="SourceAlpha" result="effect2_dropShadow_106_13698"/>
<feOffset dy="32"/>
<feGaussianBlur stdDeviation="12"/>
<feComposite in2="hardAlpha" operator="out"/>
<feColorMatrix type="matrix" values="0 0 0 0 0 0 0 0 0 0 0 0 0 0 0 0 0 0 0.4 0"/>
<feBlend mode="multiply" in2="effect1_backgroundBlur_106_13698" result="effect2_dropShadow_106_13698"/>
<feBlend mode="normal" in="SourceGraphic" in2="effect2_dropShadow_106_13698" result="shape"/>
<feColorMatrix in="SourceAlpha" type="matrix" values="0 0 0 0 0 0 0 0 0 0 0 0 0 0 0 0 0 0 127 0" result="hardAlpha"/>
<feOffset/>
<feGaussianBlur stdDeviation="4"/>
<feComposite in2="hardAlpha" operator="arithmetic" k2="-1" k3="1"/>
<feColorMatrix type="matrix" values="0 0 0 0 0.972549 0 0 0 0 0.972549 0 0 0 0 0.972549 0 0 0 0.25 0"/>
<feBlend mode="normal" in2="shape" result="effect3_innerShadow_106_13698"/>
</filter>
<filter id="filter4_bi_106_13698" x="184" y="53" width="260" height="260" filterUnits="userSpaceOnUse" color-interpolation-filters="sRGB">
<feFlood flood-opacity="0" result="BackgroundImageFix"/>
<feGaussianBlur in="BackgroundImageFix" stdDeviation="50"/>
<feComposite in2="SourceAlpha" operator="in" result="effect1_backgroundBlur_106_13698"/>
<feBlend mode="normal" in="SourceGraphic" in2="effect1_backgroundBlur_106_13698" result="shape"/>
<feColorMatrix in="SourceAlpha" type="matrix" values="0 0 0 0 0 0 0 0 0 0 0 0 0 0 0 0 0 0 127 0" result="hardAlpha"/>
<feOffset dx="2" dy="4"/>
<feGaussianBlur stdDeviation="8"/>
<feComposite in2="hardAlpha" operator="arithmetic" k2="-1" k3="1"/>
<feColorMatrix type="matrix" values="0 0 0 0 0.972549 0 0 0 0 0.972549 0 0 0 0 0.972549 0 0 0 0.06 0"/>
<feBlend mode="normal" in2="shape" result="effect2_innerShadow_106_13698"/>
</filter>
<filter id="filter5_bi_106_13698" x="260" y="59" width="248" height="248" filterUnits="userSpaceOnUse" color-interpolation-filters="sRGB">
<feFlood flood-opacity="0" result="BackgroundImageFix"/>
<feGaussianBlur in="BackgroundImageFix" stdDeviation="50"/>
<feComposite in2="SourceAlpha" operator="in" result="effect1_backgroundBlur_106_13698"/>
<feBlend mode="normal" in="SourceGraphic" in2="effect1_backgroundBlur_106_13698" result="shape"/>
<feColorMatrix in="SourceAlpha" type="matrix" values="0 0 0 0 0 0 0 0 0 0 0 0 0 0 0 0 0 0 127 0" result="hardAlpha"/>
<feOffset dx="2" dy="4"/>
<feGaussianBlur stdDeviation="8"/>
<feComposite in2="hardAlpha" operator="arithmetic" k2="-1" k3="1"/>
<feColorMatrix type="matrix" values="0 0 0 0 0.972549 0 0 0 0 0.972549 0 0 0 0 0.972549 0 0 0 0.06 0"/>
<feBlend mode="normal" in2="shape" result="effect2_innerShadow_106_13698"/>
</filter>
<filter id="filter6_bdi_106_13698" x="214" y="208" width="28" height="46.6667" filterUnits="userSpaceOnUse" color-interpolation-filters="sRGB">
<feFlood flood-opacity="0" result="BackgroundImageFix"/>
<feGaussianBlur in="BackgroundImageFix" stdDeviation="4"/>
<feComposite in2="SourceAlpha" operator="in" result="effect1_backgroundBlur_106_13698"/>
<feColorMatrix in="SourceAlpha" type="matrix" values="0 0 0 0 0 0 0 0 0 0 0 0 0 0 0 0 0 0 127 0" result="hardAlpha"/>
<feMorphology radius="10.6667" operator="erode" in="SourceAlpha" result="effect2_dropShadow_106_13698"/>
<feOffset dy="21.3333"/>
<feGaussianBlur stdDeviation="8"/>
<feComposite in2="hardAlpha" operator="out"/>
<feColorMatrix type="matrix" values="0 0 0 0 0 0 0 0 0 0 0 0 0 0 0 0 0 0 0.4 0"/>
<feBlend mode="multiply" in2="effect1_backgroundBlur_106_13698" result="effect2_dropShadow_106_13698"/>
<feBlend mode="normal" in="SourceGraphic" in2="effect2_dropShadow_106_13698" result="shape"/>
<feColorMatrix in="SourceAlpha" type="matrix" values="0 0 0 0 0 0 0 0 0 0 0 0 0 0 0 0 0 0 127 0" result="hardAlpha"/>
<feOffset/>
<feGaussianBlur stdDeviation="2.66667"/>
<feComposite in2="hardAlpha" operator="arithmetic" k2="-1" k3="1"/>
<feColorMatrix type="matrix" values="0 0 0 0 0.972549 0 0 0 0 0.972549 0 0 0 0 0.972549 0 0 0 0.25 0"/>
<feBlend mode="normal" in2="shape" result="effect3_innerShadow_106_13698"/>
</filter>
<filter id="filter7_bdi_106_13698" x="214" y="130" width="28" height="46.6667" filterUnits="userSpaceOnUse" color-interpolation-filters="sRGB">
<feFlood flood-opacity="0" result="BackgroundImageFix"/>
<feGaussianBlur in="BackgroundImageFix" stdDeviation="4"/>
<feComposite in2="SourceAlpha" operator="in" result="effect1_backgroundBlur_106_13698"/>
<feColorMatrix in="SourceAlpha" type="matrix" values="0 0 0 0 0 0 0 0 0 0 0 0 0 0 0 0 0 0 127 0" result="hardAlpha"/>
<feMorphology radius="10.6667" operator="erode" in="SourceAlpha" result="effect2_dropShadow_106_13698"/>
<feOffset dy="21.3333"/>
<feGaussianBlur stdDeviation="8"/>
<feComposite in2="hardAlpha" operator="out"/>
<feColorMatrix type="matrix" values="0 0 0 0 0 0 0 0 0 0 0 0 0 0 0 0 0 0 0.4 0"/>
<feBlend mode="multiply" in2="effect1_backgroundBlur_106_13698" result="effect2_dropShadow_106_13698"/>
<feBlend mode="normal" in="SourceGraphic" in2="effect2_dropShadow_106_13698" result="shape"/>
<feColorMatrix in="SourceAlpha" type="matrix" values="0 0 0 0 0 0 0 0 0 0 0 0 0 0 0 0 0 0 127 0" result="hardAlpha"/>
<feOffset/>
<feGaussianBlur stdDeviation="2.66667"/>
<feComposite in2="hardAlpha" operator="arithmetic" k2="-1" k3="1"/>
<feColorMatrix type="matrix" values="0 0 0 0 0.972549 0 0 0 0 0.972549 0 0 0 0 0.972549 0 0 0 0.25 0"/>
<feBlend mode="normal" in2="shape" result="effect3_innerShadow_106_13698"/>
</filter>
<filter id="filter8_d_106_13698" x="166" y="289" width="124" height="76" filterUnits="userSpaceOnUse" color-interpolation-filters="sRGB">
<feFlood flood-opacity="0" result="BackgroundImageFix"/>
<feColorMatrix in="SourceAlpha" type="matrix" values="0 0 0 0 0 0 0 0 0 0 0 0 0 0 0 0 0 0 127 0" result="hardAlpha"/>
<feOffset dy="24"/>
<feGaussianBlur stdDeviation="12"/>
<feComposite in2="hardAlpha" operator="out"/>
<feColorMatrix type="matrix" values="0 0 0 0 0 0 0 0 0 0 0 0 0 0 0 0 0 0 0.3 0"/>
<feBlend mode="multiply" in2="BackgroundImageFix" result="effect1_dropShadow_106_13698"/>
<feBlend mode="normal" in="SourceGraphic" in2="effect1_dropShadow_106_13698" result="shape"/>
</filter>
<linearGradient id="paint0_linear_106_13698" x1="228.5" y1="7" x2="228.5" y2="358" gradientUnits="userSpaceOnUse">
<stop/>
<stop offset="1" stop-color="#002478" stop-opacity="0"/>
</linearGradient>
<radialGradient id="paint1_angular_106_13698" cx="0" cy="0" r="1" gradientUnits="userSpaceOnUse" gradientTransform="translate(228 183) rotate(90) scale(158)">
<stop offset="0.168962" stop-color="white" stop-opacity="0"/>
<stop offset="0.805094" stop-color="white" stop-opacity="0"/>
<stop offset="0.99975" stop-color="white" stop-opacity="0.15"/>
</radialGradient>
<radialGradient id="paint2_angular_106_13698" cx="0" cy="0" r="1" gradientUnits="userSpaceOnUse" gradientTransform="translate(124 124) rotate(90) scale(124)">
<stop offset="0.168962" stop-color="white" stop-opacity="0"/>
<stop offset="0.805094" stop-color="white" stop-opacity="0"/>
<stop offset="0.99975" stop-color="white" stop-opacity="0.15"/>
</radialGradient>
<radialGradient id="paint3_angular_106_13698" cx="0" cy="0" r="1" gradientUnits="userSpaceOnUse" gradientTransform="translate(88 88) rotate(90) scale(88)">
<stop offset="0.168962" stop-color="white" stop-opacity="0"/>
<stop offset="0.805094" stop-color="white" stop-opacity="0"/>
<stop offset="0.99975" stop-color="white" stop-opacity="0.15"/>
</radialGradient>
<radialGradient id="paint4_angular_106_13698" cx="0" cy="0" r="1" gradientUnits="userSpaceOnUse" gradientTransform="translate(404 359) rotate(90) scale(88)">
<stop offset="0.168962" stop-color="white" stop-opacity="0"/>
<stop offset="0.805094" stop-color="white" stop-opacity="0"/>
<stop offset="0.99975" stop-color="white" stop-opacity="0.15"/>
</radialGradient>
<linearGradient id="paint5_linear_106_13698" x1="396" y1="183" x2="60" y2="183" gradientUnits="userSpaceOnUse">
<stop stop-opacity="0"/>
<stop offset="0.15"/>
<stop offset="0.85"/>
<stop offset="1" stop-opacity="0"/>
</linearGradient>
<linearGradient id="paint6_linear_106_13698" x1="72.0004" y1="172.5" x2="72.0004" y2="193.499" gradientUnits="userSpaceOnUse">
<stop stop-color="#F8F8F8" stop-opacity="0.9"/>
<stop offset="1" stop-color="#F8F8F8" stop-opacity="0.3"/>
</linearGradient>
<linearGradient id="paint7_linear_106_13698" x1="143.879" y1="169" x2="143.879" y2="175.064" gradientUnits="userSpaceOnUse">
<stop stop-color="#F8F8F8" stop-opacity="0.9"/>
<stop offset="1" stop-color="#F8F8F8" stop-opacity="0.3"/>
</linearGradient>
<linearGradient id="paint8_linear_106_13698" x1="141.303" y1="175.333" x2="141.303" y2="195.25" gradientUnits="userSpaceOnUse">
<stop stop-color="#F8F8F8" stop-opacity="0.9"/>
<stop offset="1" stop-color="#F8F8F8" stop-opacity="0.3"/>
</linearGradient>
<linearGradient id="paint9_linear_106_13698" x1="228" y1="151" x2="255.841" y2="221.28" gradientUnits="userSpaceOnUse">
<stop stop-color="white" stop-opacity="0.4"/>
<stop offset="0.4" stop-color="white" stop-opacity="0.01"/>
<stop offset="0.6" stop-color="white" stop-opacity="0.01"/>
<stop offset="1" stop-color="white" stop-opacity="0.1"/>
</linearGradient>
<linearGradient id="paint10_linear_106_13698" x1="314" y1="171.625" x2="314" y2="194.375" gradientUnits="userSpaceOnUse">
<stop stop-color="#F8F8F8" stop-opacity="0.9"/>
<stop offset="1" stop-color="#F8F8F8" stop-opacity="0.3"/>
</linearGradient>
<linearGradient id="paint11_linear_106_13698" x1="384" y1="172.5" x2="384" y2="193.5" gradientUnits="userSpaceOnUse">
<stop stop-color="#F8F8F8" stop-opacity="0.9"/>
<stop offset="1" stop-color="#F8F8F8" stop-opacity="0.3"/>
</linearGradient>
<radialGradient id="paint12_radial_106_13698" cx="0" cy="0" r="1" gradientUnits="userSpaceOnUse" gradientTransform="translate(228 201) rotate(90) scale(141)">
<stop stop-color="#D9D9D9"/>
<stop offset="1" stop-color="#737373" stop-opacity="0"/>
</radialGradient>
<linearGradient id="paint13_linear_106_13698" x1="228" y1="216" x2="233.22" y2="229.177" gradientUnits="userSpaceOnUse">
<stop stop-color="white" stop-opacity="0.4"/>
<stop offset="0.4" stop-color="white" stop-opacity="0.01"/>
<stop offset="0.6" stop-color="white" stop-opacity="0.01"/>
<stop offset="1" stop-color="white" stop-opacity="0.1"/>
</linearGradient>
<linearGradient id="paint14_linear_106_13698" x1="228" y1="138" x2="233.22" y2="151.177" gradientUnits="userSpaceOnUse">
<stop stop-color="white" stop-opacity="0.4"/>
<stop offset="0.4" stop-color="white" stop-opacity="0.01"/>
<stop offset="0.6" stop-color="white" stop-opacity="0.01"/>
<stop offset="1" stop-color="white" stop-opacity="0.1"/>
</linearGradient>
<linearGradient id="paint15_linear_106_13698" x1="228.5" y1="1" x2="228.5" y2="143.5" gradientUnits="userSpaceOnUse">
<stop stop-color="#F8F8F8" stop-opacity="0.05"/>
<stop offset="1" stop-color="#F8F8F8"/>
</linearGradient>
<linearGradient id="paint16_linear_106_13698" x1="228" y1="289" x2="233.084" y2="323.831" gradientUnits="userSpaceOnUse">
<stop stop-color="white" stop-opacity="0.4"/>
<stop offset="0.4" stop-color="white" stop-opacity="0.01"/>
<stop offset="0.6" stop-color="white" stop-opacity="0.01"/>
<stop offset="1" stop-color="white" stop-opacity="0.1"/>
</linearGradient>
<clipPath id="clip0_106_13698">
<rect x="188" y="143" width="80" height="80" rx="40" fill="white"/>
</clipPath>
</defs>
</svg>
