<svg width="20" height="20" viewBox="0 0 20 20" fill="none" xmlns="http://www.w3.org/2000/svg">
<g clip-path="url(#clip0_87_10267)">
<g clip-path="url(#clip1_87_10267)">
<g clip-path="url(#clip2_87_10267)">
<path d="M9.375 1.73608C9.17025 1.78162 8.97107 1.84936 8.781 1.93808C5.461 3.49008 3.333 7.82808 3.333 11.5481C3.333 15.0811 5.986 17.9831 9.375 18.3041V1.73608ZM10.625 18.3041C14.014 17.9841 16.667 15.0811 16.667 11.5471C16.667 11.2091 16.649 10.8661 16.615 10.5201L10.625 16.5091V18.3041ZM15.217 5.98308C14.8971 5.38399 14.5232 4.81531 14.1 4.28408L10.625 7.75908V10.5751L15.217 5.98308ZM13.257 3.36008C12.66 2.77783 11.9715 2.29745 11.219 1.93808C11.0289 1.84937 10.8298 1.78164 10.625 1.73608V5.99008L13.257 3.35808V3.36008ZM15.78 7.18708L10.625 12.3421V14.7421L16.25 9.11608L16.36 9.00608C16.2133 8.38586 16.0194 7.77776 15.78 7.18708Z" fill="#323BFF"/>
</g>
</g>
</g>
<defs>
<clipPath id="clip0_87_10267">
<rect width="20" height="20" fill="white"/>
</clipPath>
<clipPath id="clip1_87_10267">
<rect width="20" height="20" fill="white"/>
</clipPath>
<clipPath id="clip2_87_10267">
<rect width="20" height="20" fill="white"/>
</clipPath>
</defs>
</svg>
