<svg width="134" height="50" viewBox="0 0 134 50" fill="none" xmlns="http://www.w3.org/2000/svg">
<path d="M128.684 17.9271V13.7819C128.684 13.6273 128.559 13.502 128.404 13.502H118.555C116.554 13.502 114.637 14.297 113.222 15.7137C111.808 17.1304 111.014 19.0519 111.014 21.0542V26.4942C111.014 26.6488 111.139 26.7741 111.294 26.7741H115.432V18.2053C115.432 18.0508 115.558 17.9254 115.712 17.9254H128.686L128.684 17.9271Z" fill="white"/>
<path d="M128.684 17.9268V26.4955C128.684 26.6501 128.559 26.7754 128.405 26.7754H115.431V31.2006H125.561C127.561 31.2006 129.478 30.4056 130.893 28.9889C132.307 27.5722 133.101 25.6507 133.101 23.6484V18.2084C133.101 18.0538 132.976 17.9285 132.822 17.9285H128.683L128.684 17.9268Z" fill="white"/>
<path d="M111.294 35.6259H115.152C115.306 35.6259 115.431 35.5005 115.431 35.346V31.2007H111.292C111.138 31.2007 111.013 31.326 111.013 31.4806V35.3443C111.013 35.4988 111.138 35.6242 111.292 35.6242L111.294 35.6259Z" fill="white"/>
<path d="M102.177 17.9271V13.7819C102.177 13.6273 102.052 13.502 101.898 13.502H92.0481C90.0473 13.502 88.1305 14.297 86.716 15.7137C85.3015 17.1304 84.5077 19.0519 84.5077 21.0542V26.4942C84.5077 26.6488 84.6329 26.7741 84.7872 26.7741H88.926V18.2053C88.926 18.0508 89.0512 17.9254 89.2055 17.9254H102.179L102.177 17.9271Z" fill="white"/>
<path d="M102.178 17.9268V26.4955C102.178 26.6501 102.053 26.7754 101.899 26.7754H88.9248V31.2006H102.178V35.3459C102.178 35.5005 102.303 35.6258 102.457 35.6258H106.315C106.469 35.6258 106.595 35.5005 106.595 35.3459V18.2067C106.595 18.0521 106.469 17.9268 106.315 17.9268H102.176H102.178Z" fill="white"/>
<path d="M84.7857 35.6259H88.6433C88.7976 35.6259 88.9228 35.5005 88.9228 35.346V31.2007H84.784C84.6296 31.2007 84.5045 31.326 84.5045 31.4806V35.3443C84.5045 35.4988 84.6296 35.6242 84.784 35.6242L84.7857 35.6259Z" fill="white"/>
<path d="M58 13.7816V17.6453C58 17.7998 58.1252 17.9252 58.2795 17.9252H75.6715V13.7799C75.6715 13.6254 75.5463 13.5 75.392 13.5H58.2812C58.1269 13.5 58.0017 13.6254 58.0017 13.7799L58 13.7816Z" fill="white"/>
<path d="M80.0899 31.4806V35.3443C80.0899 35.4988 79.9647 35.6242 79.8104 35.6242H62.6979C62.5436 35.6242 62.4184 35.4988 62.4184 35.3443V31.2007H79.8104C79.9647 31.2007 80.0899 31.326 80.0899 31.4806Z" fill="white"/>
<path d="M75.6717 17.9268V22.0721C75.6717 22.2266 75.5466 22.352 75.3923 22.352H65.5424C63.5433 22.352 61.6247 23.1487 60.2102 24.5637C58.7958 25.9804 58.002 27.9019 58.002 29.9042V30.9207C58.002 31.0753 58.1271 31.2006 58.2814 31.2006H62.4203V27.3284C62.4203 27.0227 62.6671 26.7754 62.9723 26.7754H72.5496C74.5504 26.7754 76.4672 25.9804 77.8817 24.5637C79.2962 23.147 80.09 21.2255 80.09 19.2232V18.2067C80.09 18.0521 79.9649 17.9268 79.8105 17.9268H75.6717Z" fill="white"/>
<g clip-path="url(#clip0_76_10923)">
<rect x="1" y="1.5" width="47" height="47" rx="7" fill="#101013"/>
<rect x="-20.5" y="4.7998" width="59.98" height="59.98" fill="url(#paint0_radial_76_10923)"/>
<rect x="-14.5" y="2.5" width="78" height="45" rx="16" fill="#070708"/>
</g>
<rect x="0.5" y="1" width="48" height="48" rx="7.5" stroke="url(#paint1_linear_76_10923)"/>
<path d="M33.817 9.1462C28.205 6.81656 21.7451 8.10422 17.4483 12.4077L16.8625 12.9943V20.6885H24.5447L31.4762 13.7462C31.7532 13.4687 32.2269 13.6657 32.2269 14.0575V29.3167H42.4085C42.7849 29.3167 43.0894 29.0117 43.0894 28.6347V23.0478C43.0894 16.9632 39.4291 11.478 33.817 9.14832V9.1462Z" fill="#03BF92"/>
<path d="M15.2723 40.855C20.8843 43.1826 27.3464 41.897 31.6411 37.5935L32.2268 37.0069V29.3127H24.5446L17.6131 36.255C17.3361 36.5325 16.8625 36.3355 16.8625 35.9437V26.1253V20.6846H6.68089C6.3045 20.6846 6 20.9895 6 21.3665V26.1253V26.9534C6 33.038 9.66029 38.5233 15.2723 40.8529V40.855Z" fill="#03BF92"/>
<defs>
<radialGradient id="paint0_radial_76_10923" cx="0" cy="0" r="1" gradientUnits="userSpaceOnUse" gradientTransform="translate(9.49 34.7898) scale(29.99)">
<stop stop-color="#2D2D38"/>
<stop offset="1" stop-opacity="0"/>
</radialGradient>
<linearGradient id="paint1_linear_76_10923" x1="8" y1="-7" x2="48" y2="41" gradientUnits="userSpaceOnUse">
<stop stop-color="#7E9AED"/>
<stop offset="1" stop-color="#5E5F8A"/>
</linearGradient>
<clipPath id="clip0_76_10923">
<rect x="1" y="1.5" width="47" height="47" rx="7" fill="white"/>
</clipPath>
</defs>
</svg>
