<svg width="960" height="423" viewBox="0 0 960 423" fill="none" xmlns="http://www.w3.org/2000/svg">
<mask id="mask0_106_22961" style="mask-type:alpha" maskUnits="userSpaceOnUse" x="-123" y="-522" width="1207" height="1024">
<rect x="-123" y="-61.1816" width="1035" height="627.858" transform="rotate(-26.4202 -123 -61.1816)" fill="url(#paint0_radial_106_22961)"/>
</mask>
<g mask="url(#mask0_106_22961)">
<path fill-rule="evenodd" clip-rule="evenodd" d="M693.815 431.283L1120.35 4.75015L1119.6 4L693.065 430.533L693.815 431.283ZM687.449 431.283L1113.98 4.75015L1113.23 4L686.699 430.533L687.449 431.283ZM1107.62 4.75015L681.083 431.283L680.333 430.533L1106.87 4L1107.62 4.75015ZM674.717 431.283L1101.25 4.75015L1100.5 4L673.967 430.533L674.717 431.283ZM1094.88 4.75015L668.351 431.283L667.6 430.533L1094.13 4L1094.88 4.75015ZM661.985 431.283L1088.52 4.75015L1087.77 4L661.234 430.533L661.985 431.283ZM1082.15 4.75015L655.618 431.283L654.868 430.533L1081.4 4L1082.15 4.75015ZM649.252 431.283L1075.78 4.75015L1075.03 4L648.502 430.533L649.252 431.283ZM1069.42 4.75015L642.886 431.283L642.136 430.533L1068.67 4L1069.42 4.75015ZM636.52 431.283L1063.05 4.75015L1062.3 4L635.77 430.533L636.52 431.283ZM1056.69 4.75015L630.154 431.283L629.404 430.533L1055.94 4L1056.69 4.75015ZM623.788 431.283L1050.32 4.75015L1049.57 4L623.037 430.533L623.788 431.283ZM1043.95 4.75015L617.421 431.283L616.671 430.533L1043.2 4L1043.95 4.75015ZM611.055 431.283L1037.59 4.75015L1036.84 4L610.305 430.533L611.055 431.283ZM1031.22 4.75015L604.689 431.283L603.939 430.533L1030.47 4L1031.22 4.75015ZM598.323 431.283L1024.86 4.75015L1024.11 4L597.573 430.533L598.323 431.283ZM1018.49 4.75015L591.957 431.283L591.207 430.533L1017.74 4L1018.49 4.75015ZM585.591 431.283L1012.12 4.75015L1011.37 4L584.84 430.533L585.591 431.283ZM1005.76 4.75015L579.224 431.283L578.474 430.533L1005.01 4L1005.76 4.75015ZM572.858 431.283L999.391 4.75015L998.641 4L572.108 430.533L572.858 431.283ZM993.025 4.75015L566.492 431.283L565.742 430.533L992.275 4L993.025 4.75015ZM560.126 431.283L986.659 4.75015L985.908 4L559.376 430.533L560.126 431.283ZM980.292 4.75015L553.76 431.283L553.01 430.533L979.542 4L980.292 4.75015ZM547.394 431.283L973.926 4.75015L973.176 4L546.644 430.533L547.394 431.283ZM967.56 4.75015L541.028 431.283L540.277 430.533L966.81 4L967.56 4.75015ZM534.661 431.283L961.194 4.75015L960.444 4L533.911 430.533L534.661 431.283ZM954.828 4.75015L528.295 431.283L527.545 430.533L954.078 4L954.828 4.75015ZM521.929 431.283L948.462 4.75015L947.711 4L521.179 430.533L521.929 431.283ZM942.095 4.75015L515.563 431.283L514.813 430.533L941.345 4L942.095 4.75015ZM509.197 431.283L935.729 4.75015L934.979 4L508.447 430.533L509.197 431.283ZM929.363 4.75015L502.831 431.283L502.08 430.533L928.613 4L929.363 4.75015ZM496.464 431.283L922.997 4.75015L922.247 4L495.714 430.533L496.464 431.283ZM916.631 4.75015L490.098 431.283L489.348 430.533L915.881 4L916.631 4.75015ZM483.732 431.283L910.265 4.75015L909.514 4L482.982 430.533L483.732 431.283ZM903.898 4.75015L477.366 431.283L476.616 430.533L903.148 4L903.898 4.75015ZM471 431.283L897.532 4.75015L896.782 4L470.25 430.533L471 431.283ZM891.166 4.75015L464.634 431.283L463.883 430.533L890.416 4L891.166 4.75015ZM458.267 431.283L884.8 4.75015L884.05 4L457.517 430.533L458.267 431.283ZM878.434 4.75015L451.901 431.283L451.151 430.533L877.684 4L878.434 4.75015ZM445.535 431.283L872.068 4.75015L871.318 4L444.785 430.533L445.535 431.283ZM865.702 4.75015L439.169 431.283L438.419 430.533L864.951 4L865.702 4.75015ZM432.803 431.283L859.335 4.75015L858.585 4L432.053 430.533L432.803 431.283ZM852.969 4.75015L426.437 431.283L425.686 430.533L852.219 4L852.969 4.75015ZM420.071 431.283L846.603 4.75015L845.853 4L419.32 430.533L420.071 431.283ZM840.237 4.75015L413.704 431.283L412.954 430.533L839.487 4L840.237 4.75015ZM407.338 431.283L833.871 4.75015L833.121 4L406.588 430.533L407.338 431.283ZM827.505 4.75015L400.972 431.283L400.222 430.533L826.754 4L827.505 4.75015ZM394.606 431.283L821.138 4.75015L820.388 4L393.856 430.533L394.606 431.283ZM814.772 4.75015L388.24 431.283L387.49 430.533L814.022 4L814.772 4.75015ZM381.874 431.283L808.406 4.75015L807.656 4L381.123 430.533L381.874 431.283ZM802.04 4.75015L375.507 431.283L374.757 430.533L801.29 4L802.04 4.75015ZM369.141 431.283L795.674 4.75015L794.924 4L368.391 430.533L369.141 431.283ZM789.308 4.75015L362.775 431.283L362.025 430.533L788.557 4L789.308 4.75015ZM356.409 431.283L782.942 4.75015L782.191 4L355.659 430.533L356.409 431.283ZM776.575 4.75015L350.043 431.283L349.293 430.533L775.825 4L776.575 4.75015ZM343.677 431.283L770.209 4.75015L769.459 4L342.926 430.533L343.677 431.283ZM763.843 4.75015L337.31 431.283L336.56 430.533L763.093 4L763.843 4.75015ZM330.944 431.283L757.477 4.75015L756.727 4L330.194 430.533L330.944 431.283ZM751.111 4.75015L324.578 431.283L323.828 430.533L750.361 4L751.111 4.75015ZM318.212 431.283L744.745 4.75015L743.994 4L317.462 430.533L318.212 431.283ZM738.378 4.75015L311.846 431.283L311.096 430.533L737.628 4L738.378 4.75015ZM305.48 431.283L732.012 4.75015L731.262 4L304.729 430.533L305.48 431.283ZM725.646 4.75015L299.113 431.283L298.363 430.533L724.896 4L725.646 4.75015ZM292.747 431.283L719.28 4.75015L718.53 4L291.997 430.533L292.747 431.283ZM712.914 4.75015L286.381 431.283L285.631 430.533L712.164 4L712.914 4.75015ZM280.015 431.283L706.548 4.75015L705.797 4L279.265 430.533L280.015 431.283ZM700.181 4.75015L273.649 431.283L272.899 430.533L699.431 4L700.181 4.75015ZM267.283 431.283L693.815 4.75015L693.065 4L266.533 430.533L267.283 431.283ZM687.449 4.75015L260.917 431.283L260.166 430.533L686.699 4L687.449 4.75015ZM254.55 431.283L681.083 4.75015L680.333 4L253.8 430.533L254.55 431.283ZM674.717 4.75015L248.184 431.283L247.434 430.533L673.967 4L674.717 4.75015ZM241.818 431.283L668.351 4.75015L667.6 4L241.068 430.533L241.818 431.283ZM661.985 4.75015L235.452 431.283L234.702 430.533L661.234 4L661.985 4.75015ZM229.086 431.283L655.618 4.75015L654.868 4L228.336 430.533L229.086 431.283ZM649.252 4.75015L222.72 431.283L221.969 430.533L648.502 4L649.252 4.75015ZM216.353 431.283L642.886 4.75015L642.136 4L215.603 430.533L216.353 431.283ZM636.52 4.75015L209.987 431.283L209.237 430.533L635.77 4L636.52 4.75015ZM203.621 431.283L630.154 4.75015L629.404 4L202.871 430.533L203.621 431.283ZM623.788 4.75015L197.255 431.283L196.505 430.533L623.037 4L623.788 4.75015ZM190.889 431.283L617.421 4.75015L616.671 4L190.139 430.533L190.889 431.283ZM611.055 4.75015L184.523 431.283L183.773 430.533L610.305 4L611.055 4.75015ZM178.157 431.283L604.689 4.75015L603.939 4L177.406 430.533L178.157 431.283ZM598.323 4.75015L171.79 431.283L171.04 430.533L597.573 4L598.323 4.75015ZM165.424 431.283L591.957 4.75015L591.207 4L164.674 430.533L165.424 431.283ZM585.591 4.75015L159.058 431.283L158.308 430.533L584.84 4L585.591 4.75015ZM152.692 431.283L579.224 4.75015L578.474 4L151.942 430.533L152.692 431.283ZM572.858 4.75015L146.326 431.283L145.576 430.533L572.108 4L572.858 4.75015ZM139.96 431.283L566.492 4.75015L565.742 4L139.209 430.533L139.96 431.283ZM560.126 4.75015L133.593 431.283L132.843 430.533L559.376 4L560.126 4.75015ZM127.227 431.283L553.76 4.75015L553.01 4L126.477 430.533L127.227 431.283ZM547.394 4.75015L120.861 431.283L120.111 430.533L546.644 4L547.394 4.75015ZM114.495 431.283L541.028 4.75015L540.277 4L113.745 430.533L114.495 431.283ZM534.661 4.75015L108.129 431.283L107.379 430.533L533.911 4L534.661 4.75015ZM101.763 431.283L528.295 4.75015L527.545 4L101.012 430.533L101.763 431.283ZM521.929 4.75015L95.3965 431.283L94.6463 430.533L521.179 4L521.929 4.75015ZM89.0303 431.283L515.563 4.75015L514.813 4L88.2802 430.533L89.0303 431.283ZM509.197 4.75015L82.6641 431.283L81.914 430.533L508.447 4L509.197 4.75015ZM76.298 431.283L502.831 4.75015L502.08 4L75.5478 430.533L76.298 431.283ZM496.464 4.75015L69.9318 431.283L69.1817 430.533L495.714 4L496.464 4.75015ZM63.5657 431.283L490.098 4.75015L489.348 4L62.8155 430.533L63.5657 431.283ZM483.732 4.75015L57.1995 431.283L56.4494 430.533L482.982 4L483.732 4.75015ZM50.8333 431.283L477.366 4.75015L476.616 4L50.0832 430.533L50.8333 431.283ZM471 4.75015L44.4672 431.283L43.717 430.533L470.25 4L471 4.75015ZM38.101 431.283L464.634 4.75015L463.883 4L37.3509 430.533L38.101 431.283ZM458.267 4.75015L31.7349 431.283L30.9847 430.533L457.517 4L458.267 4.75015ZM25.3687 431.283L451.901 4.75015L451.151 4L24.6186 430.533L25.3687 431.283ZM445.535 4.75015L19.0026 431.283L18.2524 430.533L444.785 4L445.535 4.75015ZM12.6364 431.283L439.169 4.75015L438.419 4L11.8863 430.533L12.6364 431.283ZM432.803 4.75015L6.27024 431.283L5.5201 430.533L432.053 4L432.803 4.75015ZM-0.095911 431.283L426.437 4.75015L425.686 4L-0.846064 430.533L-0.095911 431.283ZM420.071 4.75015L-6.46208 431.283L-7.21221 430.533L419.32 4L420.071 4.75015ZM-12.8282 431.283L413.704 4.75015L412.954 4L-13.5784 430.533L-12.8282 431.283ZM407.338 4.75015L-19.1944 431.283L-19.9445 430.533L406.588 4L407.338 4.75015ZM-25.5605 431.283L400.972 4.75015L400.222 4L-26.3107 430.533L-25.5605 431.283ZM394.606 4.75015L-31.9267 431.283L-32.6768 430.533L393.856 4L394.606 4.75015ZM-38.2929 431.283L388.24 4.75015L387.49 4L-39.043 430.533L-38.2929 431.283ZM381.874 4.75015L-44.659 431.283L-45.4092 430.533L381.123 4L381.874 4.75015ZM-51.0252 431.283L375.507 4.75015L374.757 4L-51.7753 430.533L-51.0252 431.283ZM369.141 4.75015L-57.3913 431.283L-58.1415 430.533L368.391 4L369.141 4.75015ZM-63.7575 431.283L362.775 4.75015L362.025 4L-64.5076 430.533L-63.7575 431.283ZM356.409 4.75015L-70.1236 431.283L-70.8738 430.533L355.659 4L356.409 4.75015ZM-76.4898 431.283L350.043 4.75015L349.293 4L-77.2399 430.533L-76.4898 431.283ZM343.677 4.75015L-82.856 431.283L-83.6061 430.533L342.926 4L343.677 4.75015ZM-89.2221 431.283L337.31 4.75015L336.56 4L-89.9723 430.533L-89.2221 431.283ZM330.944 4.75015L-95.5883 431.283L-96.3384 430.533L330.194 4L330.944 4.75015ZM-101.954 431.283L324.578 4.75015L323.828 4L-102.705 430.533L-101.954 431.283ZM318.212 4.75015L-108.321 431.283L-109.071 430.533L317.462 4L318.212 4.75015ZM-114.687 431.283L311.846 4.75015L311.096 4L-115.437 430.533L-114.687 431.283ZM305.48 4.75015L-121.053 431.283L-121.803 430.533L304.729 4L305.48 4.75015ZM-127.419 431.283L299.113 4.75015L298.363 4L-128.169 430.533L-127.419 431.283ZM292.747 4.75015L-133.785 431.283L-134.535 430.533L291.997 4L292.747 4.75015ZM-140.151 431.283L286.381 4.75015L285.631 4L-140.902 430.533L-140.151 431.283ZM280.015 4.75015L-146.518 431.283L-147.268 430.533L279.265 4L280.015 4.75015ZM-152.884 431.283L273.649 4.75015L272.899 4L-153.634 430.533L-152.884 431.283ZM267.283 4.75015L-159.25 431.283L-160 430.533L266.533 4L267.283 4.75015Z" fill="url(#paint1_linear_106_22961)" fill-opacity="0.5"/>
</g>
<defs>
<radialGradient id="paint0_radial_106_22961" cx="0" cy="0" r="1" gradientUnits="userSpaceOnUse" gradientTransform="translate(394.5 252.747) scale(517.5 313.929)">
<stop/>
<stop offset="1" stop-opacity="0"/>
</radialGradient>
<linearGradient id="paint1_linear_106_22961" x1="905.801" y1="-92.0229" x2="312.687" y2="404.007" gradientUnits="userSpaceOnUse">
<stop stop-color="white"/>
<stop offset="0.758" stop-color="white" stop-opacity="0"/>
</linearGradient>
</defs>
</svg>
