<svg width="73" height="72" viewBox="0 0 73 72" fill="none" xmlns="http://www.w3.org/2000/svg">
<g clip-path="url(#clip0_106_22596)">
<rect x="0.0249939" width="72" height="72" rx="16" fill="#101013"/>
<rect x="31.795" y="22.1602" width="60" height="60" fill="url(#paint0_radial_106_22596)"/>
<rect x="-2.97501" y="1" width="78" height="70" rx="16" fill="#0B0B0D"/>
</g>
<g clip-path="url(#clip1_106_22596)">
<rect x="6.02499" y="6" width="59.95" height="59.95" rx="12" fill="#0B0B0D"/>
<rect x="6.52499" y="6.5" width="58.95" height="58.95" rx="11.5" stroke="#17171B"/>
<g clip-path="url(#clip2_106_22596)">
<rect width="39.95" height="39.95" transform="translate(16.025 16)" fill="#0B0B0D"/>
<g clip-path="url(#clip3_106_22596)">
<path d="M45.09 20.5707C39.7255 18.3439 33.5506 19.5747 29.4434 23.6883L28.8835 24.2491V31.6038H36.2267L42.8524 24.9678C43.1172 24.7026 43.57 24.8908 43.57 25.2654V39.8513H53.3024C53.6622 39.8513 53.9532 39.5598 53.9532 39.1995V33.859C53.9532 28.0429 50.4544 22.7996 45.09 20.5728V20.5707Z" fill="url(#paint1_linear_106_22596)"/>
<path d="M27.3632 50.8802C32.7277 53.105 38.9047 51.8762 43.0099 47.7626L43.5697 47.2018V39.8471H36.2265L29.6008 46.4832C29.336 46.7484 28.8832 46.5601 28.8832 46.1856V36.8003V31.5996H19.1508C18.7911 31.5996 18.5 31.8911 18.5 32.2515V36.8003V37.5919C18.5 43.4081 21.9988 48.6513 27.3632 50.8782V50.8802Z" fill="url(#paint2_linear_106_22596)"/>
<path d="M27.3632 50.8802C32.7277 53.105 38.9047 51.8762 43.0099 47.7626L43.5697 47.2018V39.8471H36.2265L29.6008 46.4832C29.336 46.7484 28.8832 46.5601 28.8832 46.1856V36.8003V31.5996H19.1508C18.7911 31.5996 18.5 31.8911 18.5 32.2515V36.8003V37.5919C18.5 43.4081 21.9988 48.6513 27.3632 50.8782V50.8802Z" fill="url(#paint3_linear_106_22596)"/>
</g>
</g>
</g>
<defs>
<radialGradient id="paint0_radial_106_22596" cx="0" cy="0" r="1" gradientUnits="userSpaceOnUse" gradientTransform="translate(61.795 52.1602) scale(30)">
<stop stop-color="#2D2D38"/>
<stop offset="1" stop-opacity="0"/>
</radialGradient>
<linearGradient id="paint1_linear_106_22596" x1="41.4183" y1="19.4751" x2="41.4183" y2="39.8513" gradientUnits="userSpaceOnUse">
<stop stop-color="#174DAF"/>
<stop offset="1" stop-color="#689BF6"/>
</linearGradient>
<linearGradient id="paint2_linear_106_22596" x1="31.0349" y1="31.5996" x2="30.5862" y2="59.3595" gradientUnits="userSpaceOnUse">
<stop stop-color="#03BF92"/>
<stop offset="1" stop-color="#015944"/>
</linearGradient>
<linearGradient id="paint3_linear_106_22596" x1="31.0349" y1="31.5996" x2="31.0349" y2="51.9749" gradientUnits="userSpaceOnUse">
<stop stop-color="#174DAF"/>
<stop offset="1" stop-color="#689BF6"/>
</linearGradient>
<clipPath id="clip0_106_22596">
<rect x="0.0249939" width="72" height="72" rx="16" fill="white"/>
</clipPath>
<clipPath id="clip1_106_22596">
<rect x="6.02499" y="6" width="59.95" height="59.95" rx="12" fill="white"/>
</clipPath>
<clipPath id="clip2_106_22596">
<rect width="39.95" height="39.95" fill="white" transform="translate(16.025 16)"/>
</clipPath>
<clipPath id="clip3_106_22596">
<rect width="48" height="48" fill="white" transform="translate(12 11.9751)"/>
</clipPath>
</defs>
</svg>
